<svg xmlns="http://www.w3.org/2000/svg" width="114" height="114" viewBox="0 0 114 114"><defs><style>.a{fill:#d0d9dc;}.b{fill:#e77817;}.c{fill:#c1c1c1;}.d{fill:#e6e6e6;}.e{fill:#c1272d;}.f{fill:#e58f4e;}.g,.h{fill:#666;}.h{mix-blend-mode:screen;isolation:isolate;}</style></defs><circle class="a" cx="57" cy="57" r="57"/><g transform="translate(17.1 19.968)"><g transform="translate(0 0)"><path class="b" d="M366.822,189.9c-11.872,0-30.519,2.93-34.809,9.442-.678,1.03-1.428,2.757-.1,5.851l.106.254.071.267c4.717,17.758,12.582,46.546,14.46,51.4,1.168.773,5.64,3.118,16.719,3.118,1.075,0,2.209-.021,3.4-.07h.613c13.478,0,18.53-2.332,19.824-3.1,1.912-5,9.741-33.649,14.442-51.351l.07-.267.108-.254c1.336-3.112.586-4.846-.1-5.88C397.356,192.819,378.7,189.9,366.822,189.9Z" transform="translate(-327.399 -186.123)"/><path class="c" d="M366.943,186.244c-9.435,0-46.03,2.732-38.379,20.557,0,0,13.763,51.826,15.1,52.848,0,0,4.616,5.141,23.28,4.4,19.292.073,23.28-4.4,23.28-4.4,1.336-1.022,15.1-52.848,15.1-52.848C412.973,188.976,376.592,186.244,366.943,186.244Zm34.909,19.068-.108.254-.07.267c-4.7,17.7-12.53,46.355-14.442,51.351-1.293.764-6.345,3.1-19.824,3.1H366.8c-1.194.05-2.328.07-3.4.07-11.08,0-15.551-2.345-16.719-3.118-1.878-4.853-9.743-33.641-14.46-51.4l-.071-.267-.106-.254c-1.33-3.094-.58-4.821.1-5.851,4.29-6.512,22.937-9.442,34.809-9.442s30.534,2.921,34.812,9.413C402.438,200.466,403.188,202.2,401.852,205.312Z" transform="translate(-327.52 -186.244)"/><path class="d" d="M339.895,217.611s27.646-11.206,53.481,0l2.989-18.245s-26.294-12.374-59.46,0Z" transform="translate(-327.21 -185.992)"/><path class="e" d="M362.9,212.525l1.99-10.632c.26-1.406.693-1.406.955,0l1.966,10.519Z" transform="translate(-326.35 -185.761)"/><g transform="translate(21.824 31.619)"><path class="f" d="M357.75,232.782c1.315-1.93,3.591-3.61,3.891-5.531a4.951,4.951,0,0,0-2.969-5.163c-2.762-1.091-7.229.31-8.573,2.99-.835,1.667-.7,3.75-.512,5.548a27.156,27.156,0,0,0,1.487,5.844c.365,1.07.733,2.139,1.051,3.225,1.046,3.59.494,6.467,1.971,9.892a3.371,3.371,0,0,0,4.177,2.08c1.911-.722,2.571-2.726,2.694-4.6.2-2.976-1.481-4.8-3.143-7.036-1.008-1.355-1.925-3.034-1.423-4.771A9.018,9.018,0,0,1,357.75,232.782Z" transform="translate(-348.62 -216.69)"/><path class="f" d="M360.475,219.121a2.046,2.046,0,1,1-2.034-2.27A2.162,2.162,0,0,1,360.475,219.121Z" transform="translate(-348.389 -216.851)"/><path class="f" d="M355.783,219.09c0,.727-.412,1.317-.918,1.317s-.919-.59-.919-1.317.41-1.316.919-1.316S355.783,218.364,355.783,219.09Z" transform="translate(-348.471 -216.82)"/><path class="f" d="M353.389,220.023a.8.8,0,1,1-.784-.975A.9.9,0,0,1,353.389,220.023Z" transform="translate(-348.541 -216.778)"/><path class="f" d="M351.538,221.6a.8.8,0,1,1-.783-.975A.9.9,0,0,1,351.538,221.6Z" transform="translate(-348.602 -216.726)"/><path class="f" d="M350.215,223.8a.8.8,0,1,1-.784-.974A.9.9,0,0,1,350.215,223.8Z" transform="translate(-348.646 -216.653)"/></g><g transform="translate(44.465 31.619)"><path class="f" d="M374.507,232.782c-1.314-1.93-3.591-3.61-3.888-5.531a4.951,4.951,0,0,1,2.967-5.163c2.762-1.091,7.229.31,8.573,2.99.837,1.667.7,3.75.513,5.548a27.277,27.277,0,0,1-1.486,5.844c-.367,1.07-.736,2.139-1.053,3.225-1.045,3.59-.492,6.467-1.97,9.892a3.372,3.372,0,0,1-4.178,2.08c-1.911-.722-2.57-2.726-2.694-4.6-.193-2.976,1.482-4.8,3.144-7.036,1.008-1.355,1.925-3.034,1.424-4.771A9.025,9.025,0,0,0,374.507,232.782Z" transform="translate(-370.561 -216.69)"/><path class="f" d="M371.522,219.121a2.045,2.045,0,1,0,2.032-2.27A2.162,2.162,0,0,0,371.522,219.121Z" transform="translate(-370.53 -216.851)"/><path class="f" d="M376.143,219.09c0,.727.411,1.317.918,1.317s.918-.59.918-1.317-.412-1.316-.918-1.316S376.143,218.364,376.143,219.09Z" transform="translate(-370.377 -216.82)"/><path class="f" d="M378.528,220.023a.8.8,0,1,0,.784-.975A.9.9,0,0,0,378.528,220.023Z" transform="translate(-370.298 -216.778)"/><path class="f" d="M380.378,221.6a.8.8,0,1,0,.784-.975A.9.9,0,0,0,380.378,221.6Z" transform="translate(-370.237 -216.726)"/><path class="f" d="M381.7,223.8a.8.8,0,1,0,.785-.974A.9.9,0,0,0,381.7,223.8Z" transform="translate(-370.193 -216.653)"/></g><g transform="translate(10.219 8.521)"><g transform="translate(0 1.743)"><path class="g" d="M341.235,205.55a.214.214,0,0,1-.114.276l-1.124.416a.218.218,0,0,1-.27-.135l-2.3-5.88a.214.214,0,0,1,.124-.281l1.217-.449a.217.217,0,0,1,.279.129Z" transform="translate(-337.412 -196.07)"/><path class="g" d="M343.178,202.791a.21.21,0,0,1-.125.272l-.67.219a.218.218,0,0,1-.267-.144l-1.423-4.117a.216.216,0,0,1,.136-.276l.707-.232a.222.222,0,0,1,.277.142Z" transform="translate(-337.304 -196.102)"/><path class="g" d="M345.811,201.972a.212.212,0,0,1-.136.267l-.678.191a.213.213,0,0,1-.258-.15l-1.278-4.164a.216.216,0,0,1,.142-.274l.717-.2a.221.221,0,0,1,.271.152Z" transform="translate(-337.212 -196.131)"/><path class="g" d="M348.5,201.236a.211.211,0,0,1-.147.26l-.341.081-.339.1a.209.209,0,0,1-.254-.157l-1.127-4.208a.222.222,0,0,1,.152-.271l.359-.1.364-.087a.223.223,0,0,1,.266.162Z" transform="translate(-337.119 -196.157)"/><path class="g" d="M351.141,200.61a.219.219,0,0,1-.154.261l-.681.162a.213.213,0,0,1-.252-.166l-.973-4.246a.225.225,0,0,1,.164-.265l.724-.17a.213.213,0,0,1,.259.164Z" transform="translate(-337.026 -196.179)"/></g><g transform="translate(15.043)"><path class="g" d="M354.722,201.924a.221.221,0,0,1-.161.254l-1.17.224a.213.213,0,0,1-.238-.179l-1.176-6.2a.221.221,0,0,1,.174-.258l1.281-.243a.215.215,0,0,1,.251.177Z" transform="translate(-351.973 -194.458)"/><path class="g" d="M357.143,199.6a.218.218,0,0,1-.176.246l-.7.1a.212.212,0,0,1-.233-.188l-.613-4.313a.223.223,0,0,1,.186-.249l.742-.105a.217.217,0,0,1,.244.187Z" transform="translate(-351.859 -194.472)"/><path class="g" d="M359.878,199.319a.215.215,0,0,1-.185.238l-.7.064a.217.217,0,0,1-.226-.2l-.44-4.335a.217.217,0,0,1,.2-.238l.745-.069a.215.215,0,0,1,.236.2Z" transform="translate(-351.763 -194.483)"/><path class="g" d="M362.654,199.141a.212.212,0,0,1-.194.227l-.7.029a.216.216,0,0,1-.217-.211l-.263-4.348a.215.215,0,0,1,.207-.228l.75-.031a.224.224,0,0,1,.229.21Z" transform="translate(-351.665 -194.489)"/><path class="g" d="M365.36,199.071a.208.208,0,0,1-.2.217h-.7a.207.207,0,0,1-.21-.211l-.084-4.355a.225.225,0,0,1,.215-.228h.749a.226.226,0,0,1,.221.223Z" transform="translate(-351.57 -194.492)"/></g><g transform="translate(30.557 0.03)"><path class="g" d="M368.58,201.1a.2.2,0,0,1-.208.2s-.3-.024-.593-.021-.592-.008-.592-.008a.21.21,0,0,1-.2-.221l.149-6.314a.223.223,0,0,1,.224-.217l.654.01c.329,0,.654.024.654.024a.225.225,0,0,1,.21.235Z" transform="translate(-366.991 -194.521)"/><path class="g" d="M371.439,199.333a.217.217,0,0,1-.225.2l-.7-.049a.211.211,0,0,1-.188-.233l.323-4.343a.221.221,0,0,1,.234-.2l.75.053a.216.216,0,0,1,.2.234Z" transform="translate(-366.881 -194.515)"/><path class="g" d="M374.171,199.657a.214.214,0,0,1-.231.192l-.694-.088a.218.218,0,0,1-.178-.245l.508-4.325a.217.217,0,0,1,.244-.19l.746.094a.216.216,0,0,1,.186.245Z" transform="translate(-366.79 -194.505)"/><path class="g" d="M376.924,200.091a.214.214,0,0,1-.243.179l-.687-.129a.221.221,0,0,1-.166-.254l.7-4.3a.215.215,0,0,1,.252-.177l.737.137a.223.223,0,0,1,.178.256Z" transform="translate(-366.699 -194.492)"/><path class="g" d="M379.585,200.607a.208.208,0,0,1-.248.164l-.686-.134a.209.209,0,0,1-.157-.253l.877-4.268a.226.226,0,0,1,.26-.175l.737.146a.231.231,0,0,1,.165.268Z" transform="translate(-366.611 -194.474)"/></g><g transform="translate(44.764 2.201)"><path class="g" d="M382.293,203.3a.215.215,0,0,1-.251.163l-1.151-.286a.211.211,0,0,1-.141-.261l1.537-6.125a.223.223,0,0,1,.267-.16l1.272.319a.215.215,0,0,1,.155.264Z" transform="translate(-380.743 -196.623)"/><path class="g" d="M385.45,202.229a.214.214,0,0,1-.262.148l-.668-.211a.214.214,0,0,1-.131-.272l1.272-4.166a.218.218,0,0,1,.274-.145l.717.226a.218.218,0,0,1,.139.274Z" transform="translate(-380.623 -196.591)"/><path class="g" d="M388.053,203.128a.211.211,0,0,1-.267.132l-.656-.252a.218.218,0,0,1-.117-.28l1.443-4.11a.213.213,0,0,1,.277-.129l.7.268a.221.221,0,0,1,.129.284Z" transform="translate(-380.536 -196.562)"/><path class="g" d="M390.657,204.124a.219.219,0,0,1-.277.13l-.653-.251a.21.21,0,0,1-.112-.277l1.612-4.049a.223.223,0,0,1,.285-.125l.7.27a.213.213,0,0,1,.12.281Z" transform="translate(-380.45 -196.526)"/><path class="g" d="M393.132,205.242a.215.215,0,0,1-.28.115l-.638-.291a.218.218,0,0,1-.1-.286l1.768-3.981a.219.219,0,0,1,.29-.109l-.409,3.185Z" transform="translate(-380.368 -196.489)"/></g></g></g><path class="h" d="M339.895,217.613s23.589-16.555,37.546-23.068c0,0-18.4-3.469-40.537,4.823Z" transform="translate(-327.21 -185.993)"/></g></svg>