<svg xmlns="http://www.w3.org/2000/svg" width="171.408" height="275.995" viewBox="0 0 171.408 275.995"><defs><style>.a{fill:#ffb18c;}.b{fill:#52362b;}.c{fill:#e77817;}.d{fill:#c28a5f;}.e{fill:#dae1e1;}.f{fill:#d6d6d6;mix-blend-mode:multiply;isolation:isolate;}.g{fill:#c79671;}.h{fill:#663f30;}.i{fill:#4d2f24;}</style></defs><path class="a" d="M-245.4,153.544a5.561,5.561,0,0,0-1.878-5.175c-9.791-48.889,15.848-83.444,15.848-83.444l-20.824-3.082s-26.352,35.012-5.551,88.892l-.015.008s-1.465,10.09,1.28,13.172,9.768,6.341,13.367,3.259,3.086-8.231,1.89-10.8A5.341,5.341,0,0,0-245.4,153.544Z" transform="translate(265.805 11.171)"/><path class="a" d="M-216.09,153.544a5.571,5.571,0,0,1,1.878-5.175c9.791-48.889-15.848-83.444-15.848-83.444l20.824-3.082s26.356,35.012,5.555,88.892l.012.008s1.464,10.09-1.277,13.172-9.772,6.341-13.371,3.259-3.09-8.231-1.878-10.8A5.319,5.319,0,0,1-216.09,153.544Z" transform="translate(367.092 11.171)"/><path class="b" d="M-246.029,48.791c-1.924,2.5-6.352,18-1.859,21.981,3.025,2.411,23.231,4.934,23.231,4.934s19.294-2.269,21.686-5.616c5.133-4.757-1.461-22.15-3.692-23.691S-244.1,46.292-246.029,48.791Z" transform="translate(311.054 -34.4)"/><path class="a" d="M-231.088,50.97a5.232,5.232,0,0,1-3.692,6.406c-2.791.755-5.528-9.292-2.726-10.055A5.23,5.23,0,0,1-231.088,50.97Z" transform="translate(342.663 -30.499)"/><path class="a" d="M-250.1,50.97a5.229,5.229,0,0,0,3.688,6.406c2.8.755,5.528-9.292,2.733-10.055A5.227,5.227,0,0,0-250.1,50.97Z" transform="translate(309.785 -30.499)"/><path class="c" d="M-142.64,82.789H-258.723v7.238a32.193,32.193,0,0,0,32.194,32.186h51.7A32.189,32.189,0,0,0-142.64,90.027Z" transform="translate(285.872 70.525)"/><path class="c" d="M-213.144,172.081h-30.342l-13.983-83,53.236,9.981Z" transform="translate(289.426 88.361)"/><path class="c" d="M-204.674,172.081h-30.339l-8.569-73.016,53.237-9.981Z" transform="translate(328.774 88.361)"/><path class="a" d="M-152.259,69.919c30.515,27.429,64.012,124.724-39.478,124.724s-70-97.3-39.482-124.724c11.984-10.768,27.295-15.656,39.482-15.656S-164.242,59.151-152.259,69.919Z" transform="translate(277.274 -10.304)"/><path class="d" d="M-240.447,88.588c0,1.56-.813,2.833-1.806,2.833s-1.8-1.273-1.8-2.833.8-2.825,1.8-2.825S-240.447,87.028-240.447,88.588Z" transform="translate(327.446 78.952)"/><path class="e" d="M-191.245,144.765c25.524,0,49.813,3.412,68.651,9.147,8.564-32.819-11.2-67.834-29.173-83.993-11.984-10.768-27.291-15.656-39.478-15.656s-27.5,4.888-39.482,15.656c-17.975,16.158-37.7,51.174-29.143,83.993C-241.023,148.177-216.772,144.765-191.245,144.765Z" transform="translate(276.782 -10.304)"/><path class="f" d="M-158.491,70.668c-9.856,4.351-15.127,1.648-25.826-1.035-6.755-1.694-14.418-3.619-23.032-3.937h-.1c-8.618.318-16.277,2.243-23.036,3.937-10.7,2.683-18.9,6.394-25.826,1.035h0a14.589,14.589,0,0,0,11.133,4.393c4.5,0,9.63-1.284,15.369-2.726,6.617-1.656,14.107-3.535,22.407-3.849,8.3.314,15.8,2.193,22.415,3.849,5.739,1.441,10.86,2.726,15.365,2.726a14.587,14.587,0,0,0,11.136-4.393Z" transform="translate(292.695 22.092)"/><path class="g" d="M-232.135,64.013a83.426,83.426,0,0,0,13.9-1.112V53.816H-247.2V62.7A82.482,82.482,0,0,0-232.135,64.013Z" transform="translate(318.508 -11.571)"/><path class="f" d="M-247.674,58.227a39.92,39.92,0,0,0,16.868,3.5c10.086,0,15.618-3.239,15.618-3.239l-.728-2.189a73.96,73.96,0,0,1-14.889,1.422,72.308,72.308,0,0,1-16.066-1.679Z" transform="translate(317.18 -5.274)"/><path class="e" d="M-211.258,55.924C-238.653,51.75-263.076,80.8-263.076,80.8l25.708,5.4S-210.085,57.27-211.258,55.924Z" transform="translate(273.538 -6.759)"/><path class="e" d="M-237.372,55.924C-209.981,51.75-185.558,80.8-185.558,80.8l-25.7,5.4S-238.549,57.27-237.372,55.924Z" transform="translate(346.267 -6.759)"/><path class="a" d="M-213.421,48.609c10.063,9.036,21.1,41.111-13.007,41.111s-23.078-32.075-13.019-41.111a20.169,20.169,0,0,1,13.019-5.168A20.134,20.134,0,0,1-213.421,48.609Z" transform="translate(311.966 -40.968)"/><path class="h" d="M-248.9,56.152c-.832,8.43,32.627-1.211,42.552-.567-2.315-1.572-3.853-3.841-4.945-5.079-3.558-3.734-9.963-7.709-16.825-7.709C-241.246,42.8-248.38,49.347-248.9,56.152Z" transform="translate(313.669 -42.796)"/><path class="h" d="M-246.209,46.707s-3.22,7.5-3.22,11.918c.8.468,1.928,1.683,3.22,1.886a63.636,63.636,0,0,1,1.277-13.463Z" transform="translate(312.207 -31.714)"/><path class="h" d="M-237.458,46.082s4.382,9.3,4.29,14.314c-.793.468-1.932,1.683-3.212,1.886.123-7.2-2.729-16.2-2.729-16.2Z" transform="translate(341.446 -33.485)"/><path class="h" d="M-196.5,126.287h-44.477V110.734h31.883a12.593,12.593,0,0,1,12.593,12.6Z" transform="translate(336.156 149.708)"/><path class="i" d="M-233.032,117.588h.023a1.115,1.115,0,0,0,1.112-1.112v-5.743h-2.246v5.743A1.115,1.115,0,0,0-233.032,117.588Z" transform="translate(355.517 149.708)"/><path class="i" d="M-234.108,117.588h.023a1.109,1.109,0,0,0,1.108-1.112v-5.743h-2.246v5.743A1.113,1.113,0,0,0-234.108,117.588Z" transform="translate(352.457 149.708)"/><path class="i" d="M-240.655,112.141h-.322V122.3H-230.6v-.1A10.06,10.06,0,0,0-240.655,112.141Z" transform="translate(336.156 153.695)"/><path class="h" d="M-257.878,126.287h44.48V110.734h-31.883a12.594,12.594,0,0,0-12.6,12.6Z" transform="translate(288.266 149.708)"/><path class="i" d="M-252.56,117.588h-.023a1.113,1.113,0,0,1-1.112-1.112v-5.743h2.247v5.743A1.113,1.113,0,0,1-252.56,117.588Z" transform="translate(300.119 149.708)"/><path class="i" d="M-251.481,117.588h-.023a1.113,1.113,0,0,1-1.112-1.112v-5.743h2.246v5.743A1.11,1.11,0,0,1-251.481,117.588Z" transform="translate(303.176 149.708)"/><path class="i" d="M-238.925,112.141h.326V122.3h-10.385v-.1A10.06,10.06,0,0,1-238.925,112.141Z" transform="translate(313.468 153.695)"/></svg>