<svg xmlns="http://www.w3.org/2000/svg" width="279.552" height="321.511" viewBox="0 0 279.552 321.511"><defs><style>.a{fill:#e5e5e5;}.b{fill:#a3aeb5;opacity:0.3;}.c,.d{fill:#86b8ba;}.d,.f,.i,.l,.n,.r,.t,.u,.w{mix-blend-mode:multiply;}.d,.f,.g,.i,.l,.n,.o,.r,.t,.u,.w{isolation:isolate;}.e,.f{fill:#cce2da;}.f,.t,.w{opacity:0.5;}.g,.o{mix-blend-mode:screen;}.h,.i{fill:#4d5350;}.j{fill:#c39368;}.k,.n{fill:#f4d9bf;}.m{fill:#e77817;}.o{fill:#415d7e;}.p{fill:#d36716;}.q{fill:#dae1e1;}.r{fill:#d6d6d6;}.s,.t{fill:#866c5d;}.u{fill:#91600a;}.v{fill:#efcaa6;}.w{fill:#ae9f00;}.x{fill:#f9cbc0;}.y{fill:#3d1a0b;}.z{fill:#fff;}.aa{fill:#e74b00;}</style></defs><g transform="translate(-789.941 142.842)"><path class="a" d="M925.663,173.125h-.017c-.679-.01-1.367-.027-2.047-.045a1.176,1.176,0,1,1,.071-2.35c.667.02,1.345.035,2.011.045a1.175,1.175,0,1,1-.019,2.35Zm6.766-.059a1.175,1.175,0,0,1-.039-2.35c.669-.02,1.345-.047,2.013-.079a1.175,1.175,0,1,1,.11,2.347c-.676.034-1.364.059-2.045.082Zm-15.546-.344c-.032,0-.065,0-.1,0-.676-.054-1.362-.112-2.038-.173a1.175,1.175,0,1,1,.219-2.34c.664.06,1.34.117,2,.168a1.175,1.175,0,0,1-.09,2.348Zm24.321-.213a1.175,1.175,0,0,1-.112-2.345c.664-.062,1.339-.131,2-.2a1.175,1.175,0,1,1,.263,2.335c-.676.076-1.361.144-2.038.21C941.28,172.509,941.241,172.509,941.2,172.509Zm-33.062-.737a1.461,1.461,0,0,1-.17-.012c-.673-.094-1.352-.2-2.025-.3a1.175,1.175,0,1,1,.37-2.321c.659.1,1.328.2,1.991.294a1.174,1.174,0,0,1-.167,2.338Zm41.785-.366a1.174,1.174,0,0,1-.189-2.335c.661-.106,1.33-.215,1.984-.329a1.176,1.176,0,1,1,.411,2.315c-.666.116-1.345.228-2.018.334A1.206,1.206,0,0,1,949.926,171.406Zm-50.448-1.128a1.219,1.219,0,0,1-.243-.025c-.668-.138-1.34-.28-2-.426a1.175,1.175,0,0,1-.9-1.4,1.19,1.19,0,0,1,1.42-.891c.651.144,1.311.285,1.967.42a1.174,1.174,0,0,1-.241,2.326Zm59.082-.52a1.174,1.174,0,0,1-.263-2.321c.652-.146,1.313-.3,1.96-.452a1.185,1.185,0,0,1,1.434.864,1.171,1.171,0,0,1-.875,1.417c-.659.159-1.328.316-1.992.462A1.208,1.208,0,0,1,958.56,169.758Zm-67.631-1.517a1.194,1.194,0,0,1-.314-.044c-.656-.178-1.32-.363-1.97-.551a1.176,1.176,0,0,1-.81-1.459,1.189,1.189,0,0,1,1.474-.8c.642.185,1.293.366,1.936.542a1.171,1.171,0,0,1,.831,1.443A1.188,1.188,0,0,1,890.929,168.24Zm76.139-.673a1.184,1.184,0,0,1-1.138-.843,1.171,1.171,0,0,1,.8-1.459c.642-.186,1.289-.379,1.928-.576a1.191,1.191,0,0,1,1.488.774,1.171,1.171,0,0,1-.783,1.469c-.649.2-1.308.4-1.959.587A1.182,1.182,0,0,1,967.068,167.567Zm-84.537-1.9a1.23,1.23,0,0,1-.391-.065c-.644-.22-1.3-.45-1.936-.678a1.171,1.171,0,0,1-.713-1.5,1.194,1.194,0,0,1,1.524-.7c.627.225,1.267.448,1.9.665a1.171,1.171,0,0,1,.735,1.494A1.188,1.188,0,0,1,882.531,165.667Zm92.888-.821a1.187,1.187,0,0,1-1.116-.772,1.169,1.169,0,0,1,.708-1.506c.627-.227,1.26-.462,1.886-.7a1.2,1.2,0,0,1,1.535.678,1.169,1.169,0,0,1-.684,1.516c-.635.242-1.281.48-1.918.71A1.173,1.173,0,0,1,975.419,164.846Zm-101.126-2.288a1.188,1.188,0,0,1-.457-.092c-.629-.258-1.264-.527-1.89-.8a1.172,1.172,0,0,1-.613-1.548,1.192,1.192,0,0,1,1.566-.606c.613.265,1.238.527,1.857.782a1.172,1.172,0,0,1,.637,1.537A1.191,1.191,0,0,1,874.293,162.558Zm109.271-.95a1.19,1.19,0,0,1-1.087-.7,1.17,1.17,0,0,1,.608-1.549c.613-.267,1.228-.54,1.829-.812a1.2,1.2,0,0,1,1.576.581,1.17,1.17,0,0,1-.587,1.558c-.612.275-1.237.554-1.86.824A1.214,1.214,0,0,1,983.564,161.608ZM866.28,158.94a1.21,1.21,0,0,1-.528-.123c-.61-.3-1.228-.608-1.831-.915a1.169,1.169,0,0,1-.515-1.583,1.2,1.2,0,0,1,1.6-.507c.594.3,1.2.606,1.8.9a1.166,1.166,0,0,1,.535,1.574A1.19,1.19,0,0,1,866.28,158.94Zm125.2-1.073a1.2,1.2,0,0,1-1.06-.636,1.17,1.17,0,0,1,.509-1.583c.589-.3,1.187-.613,1.775-.925a1.2,1.2,0,0,1,1.61.478,1.17,1.17,0,0,1-.486,1.593c-.6.317-1.208.633-1.8.94A1.193,1.193,0,0,1,991.481,157.867Zm-132.964-3.041a1.2,1.2,0,0,1-.593-.159c-.586-.334-1.18-.68-1.768-1.027a1.168,1.168,0,0,1-.411-1.611,1.2,1.2,0,0,1,1.631-.406c.579.342,1.164.683,1.739,1.01a1.168,1.168,0,0,1,.433,1.606A1.194,1.194,0,0,1,858.517,154.826Zm140.624-1.192a1.189,1.189,0,0,1-1.019-.569,1.165,1.165,0,0,1,.406-1.613c.571-.341,1.146-.688,1.712-1.036a1.2,1.2,0,0,1,1.637.378,1.168,1.168,0,0,1-.382,1.618c-.576.354-1.162.708-1.741,1.052A1.192,1.192,0,0,1,999.142,153.634Zm-148.1-3.4a1.208,1.208,0,0,1-.659-.2c-.564-.373-1.135-.754-1.7-1.136a1.166,1.166,0,0,1-.306-1.632,1.2,1.2,0,0,1,1.654-.3c.55.376,1.113.75,1.668,1.116a1.166,1.166,0,0,1,.33,1.63A1.19,1.19,0,0,1,851.04,150.232Zm155.481-1.3a1.187,1.187,0,0,1-.979-.509,1.163,1.163,0,0,1,.3-1.633c.547-.374,1.1-.759,1.642-1.14a1.2,1.2,0,0,1,1.66.274,1.166,1.166,0,0,1-.277,1.638c-.554.389-1.116.779-1.675,1.16A1.188,1.188,0,0,1,1006.521,148.927Zm-162.646-3.748a1.192,1.192,0,0,1-.72-.238c-.54-.408-1.085-.824-1.62-1.239a1.167,1.167,0,0,1-.2-1.65,1.2,1.2,0,0,1,1.67-.2c.525.406,1.06.816,1.593,1.219a1.165,1.165,0,0,1,.226,1.645A1.188,1.188,0,0,1,843.875,145.179Zm169.712-1.412a1.2,1.2,0,0,1-.936-.448,1.166,1.166,0,0,1,.2-1.65c.521-.406,1.05-.824,1.568-1.24a1.2,1.2,0,0,1,1.673.17,1.165,1.165,0,0,1-.173,1.653c-.526.423-1.065.849-1.595,1.262A1.185,1.185,0,0,1,1013.587,143.768ZM837.05,139.7a1.2,1.2,0,0,1-.78-.287c-.511-.44-1.028-.89-1.537-1.336a1.167,1.167,0,0,1-.093-1.66,1.2,1.2,0,0,1,1.678-.094c.5.441,1.009.883,1.51,1.314a1.164,1.164,0,0,1,.12,1.658A1.193,1.193,0,0,1,837.05,139.7Zm183.262-1.521a1.188,1.188,0,0,1-.885-.389,1.165,1.165,0,0,1,.09-1.66c.5-.44,1-.89,1.488-1.338a1.2,1.2,0,0,1,1.68.067,1.166,1.166,0,0,1-.066,1.66c-.5.455-1.009.913-1.513,1.36A1.194,1.194,0,0,1,1020.312,138.175ZM830.592,133.8a1.188,1.188,0,0,1-.834-.337c-.489-.473-.977-.955-1.449-1.428a1.168,1.168,0,0,1,.01-1.663,1.2,1.2,0,0,1,1.682.012c.467.467.946.94,1.423,1.4a1.165,1.165,0,0,1,.014,1.662A1.194,1.194,0,0,1,830.592,133.8Zm196.076-1.625a1.2,1.2,0,0,1-.834-.336,1.168,1.168,0,0,1-.015-1.662c.472-.473.943-.953,1.4-1.428a1.2,1.2,0,0,1,1.68-.039,1.166,1.166,0,0,1,.039,1.662c-.467.482-.946.972-1.425,1.452A1.185,1.185,0,0,1,1026.668,132.173Zm-202.145-4.661a1.188,1.188,0,0,1-.887-.393c-.455-.5-.909-1.01-1.354-1.514a1.165,1.165,0,0,1,.117-1.658,1.2,1.2,0,0,1,1.678.116c.436.5.883,1,1.33,1.49a1.164,1.164,0,0,1-.093,1.658A1.187,1.187,0,0,1,824.523,127.511Zm208.109-1.725a1.187,1.187,0,0,1-.778-.287,1.163,1.163,0,0,1-.12-1.657c.435-.5.873-1.005,1.306-1.514a1.2,1.2,0,0,1,1.677-.143,1.164,1.164,0,0,1,.144,1.655c-.44.517-.888,1.036-1.33,1.539A1.193,1.193,0,0,1,1032.632,125.786Zm-213.764-4.925a1.193,1.193,0,0,1-.934-.448c-.423-.532-.846-1.069-1.254-1.6a1.165,1.165,0,0,1,.223-1.647,1.2,1.2,0,0,1,1.668.218c.4.52.814,1.047,1.232,1.571a1.165,1.165,0,0,1-.2,1.648A1.184,1.184,0,0,1,818.868,120.861Zm219.31-1.825a1.186,1.186,0,0,1-.72-.24,1.165,1.165,0,0,1-.226-1.647c.4-.525.812-1.061,1.208-1.593a1.2,1.2,0,0,1,1.663-.247,1.165,1.165,0,0,1,.25,1.643c-.4.54-.815,1.086-1.228,1.62A1.189,1.189,0,0,1,1038.178,119.037Zm-224.525-5.163a1.187,1.187,0,0,1-.98-.509c-.387-.552-.773-1.115-1.148-1.67a1.163,1.163,0,0,1,.328-1.628,1.2,1.2,0,0,1,1.649.322c.369.546.749,1.1,1.128,1.642a1.166,1.166,0,0,1-.3,1.635A1.194,1.194,0,0,1,813.653,113.874Zm229.629-1.92a1.2,1.2,0,0,1-.659-.2,1.167,1.167,0,0,1-.329-1.63c.37-.552.742-1.113,1.1-1.665a1.2,1.2,0,0,1,1.644-.352,1.167,1.167,0,0,1,.355,1.625c-.367.562-.746,1.133-1.123,1.694A1.192,1.192,0,0,1,1043.282,111.953ZM808.9,106.579a1.193,1.193,0,0,1-1.019-.571c-.348-.574-.7-1.158-1.04-1.737a1.167,1.167,0,0,1,.432-1.606,1.2,1.2,0,0,1,1.625.425c.336.571.68,1.146,1.021,1.709a1.167,1.167,0,0,1-.408,1.613A1.208,1.208,0,0,1,808.9,106.579Zm239.028-2.018a1.2,1.2,0,0,1-.595-.158,1.167,1.167,0,0,1-.433-1.606c.331-.567.666-1.15,1-1.732a1.2,1.2,0,0,1,1.617-.453,1.165,1.165,0,0,1,.459,1.6c-.334.593-.674,1.187-1.012,1.764A1.192,1.192,0,0,1,1047.923,104.561ZM804.618,99a1.189,1.189,0,0,1-1.057-.636c-.311-.594-.623-1.2-.924-1.8a1.166,1.166,0,0,1,.533-1.576,1.2,1.2,0,0,1,1.6.527c.3.589.6,1.183.907,1.767a1.166,1.166,0,0,1-.509,1.583A1.2,1.2,0,0,1,804.618,99Zm247.463-2.115a1.185,1.185,0,0,1-.527-.123,1.17,1.17,0,0,1-.538-1.574c.3-.591.594-1.2.883-1.793a1.193,1.193,0,0,1,1.585-.554,1.169,1.169,0,0,1,.563,1.566c-.294.608-.6,1.222-.9,1.823A1.19,1.19,0,0,1,1052.081,96.889Zm-251.244-5.71a1.188,1.188,0,0,1-1.089-.7c-.275-.616-.545-1.239-.807-1.851a1.173,1.173,0,0,1,.635-1.539,1.2,1.2,0,0,1,1.558.628c.255.6.523,1.214.792,1.819a1.17,1.17,0,0,1-.611,1.548A1.2,1.2,0,0,1,800.837,91.179Zm254.9-2.211a1.2,1.2,0,0,1-.459-.092,1.171,1.171,0,0,1-.639-1.536c.258-.608.515-1.229.764-1.848a1.2,1.2,0,0,1,1.546-.653,1.169,1.169,0,0,1,.662,1.527c-.255.629-.516,1.262-.778,1.88A1.19,1.19,0,0,1,1055.739,88.968Zm-258.17-5.831a1.189,1.189,0,0,1-1.116-.772c-.234-.631-.464-1.272-.688-1.905a1.174,1.174,0,0,1,.73-1.5,1.194,1.194,0,0,1,1.515.723c.221.624.448,1.254.678,1.873a1.174,1.174,0,0,1-.71,1.507A1.252,1.252,0,0,1,797.569,83.137Zm261.307-2.31a1.237,1.237,0,0,1-.385-.064,1.175,1.175,0,0,1-.739-1.5c.221-.628.437-1.264.646-1.892a1.192,1.192,0,0,1,1.5-.75,1.173,1.173,0,0,1,.759,1.484c-.212.636-.433,1.284-.656,1.925A1.187,1.187,0,0,1,1058.876,80.827ZM794.821,74.884a1.189,1.189,0,0,1-1.141-.844c-.19-.643-.379-1.3-.562-1.944a1.175,1.175,0,0,1,.827-1.449,1.193,1.193,0,0,1,1.464.817c.178.638.365,1.281.554,1.912a1.174,1.174,0,0,1-.807,1.459A1.145,1.145,0,0,1,794.821,74.884Zm266.657-2.365a1.205,1.205,0,0,1-.316-.044,1.171,1.171,0,0,1-.832-1.444c.177-.64.352-1.286.518-1.922a1.19,1.19,0,0,1,1.449-.843,1.173,1.173,0,0,1,.854,1.432c-.17.646-.347,1.3-.528,1.954A1.189,1.189,0,0,1,1061.478,72.519ZM792.609,66.473a1.185,1.185,0,0,1-1.157-.916c-.15-.653-.3-1.318-.437-1.976a1.175,1.175,0,0,1,.919-1.393,1.191,1.191,0,0,1,1.408.908c.138.646.282,1.3.428,1.944a1.182,1.182,0,0,1-1.162,1.433Zm270.924-2.4a1.207,1.207,0,0,1-.243-.025,1.174,1.174,0,0,1-.922-1.388c.134-.648.266-1.3.391-1.95a1.192,1.192,0,0,1,1.393-.933,1.173,1.173,0,0,1,.943,1.375c-.126.658-.26,1.324-.4,1.984A1.185,1.185,0,0,1,1063.533,64.069ZM790.948,57.941a1.188,1.188,0,0,1-1.174-.99c-.105-.658-.209-1.331-.306-2a1.189,1.189,0,0,1,2.354-.337c.1.658.2,1.319.3,1.966a1.177,1.177,0,0,1-.987,1.346A1.191,1.191,0,0,1,790.948,57.941Zm274.091-2.432a1.412,1.412,0,0,1-.167-.012,1.178,1.178,0,0,1-1.012-1.328c.1-.656.183-1.319.266-1.971a1.19,1.19,0,0,1,2.361.294c-.085.663-.177,1.338-.272,2A1.186,1.186,0,0,1,1065.039,55.509Zm-275.2-6.187a1.184,1.184,0,0,1-1.182-1.064c-.064-.668-.124-1.344-.178-2.016a1.189,1.189,0,0,1,2.37-.188c.054.658.114,1.324.177,1.982a1.181,1.181,0,0,1-1.072,1.281C789.913,49.32,789.876,49.322,789.838,49.322Zm276.155-2.451a.849.849,0,0,1-.094-.005,1.178,1.178,0,0,1-1.094-1.262c.051-.653.1-1.319.141-1.982a1.188,1.188,0,0,1,2.371.146c-.041.675-.09,1.355-.143,2.018A1.183,1.183,0,0,1,1065.993,46.871ZM789.281,40.649a1.183,1.183,0,0,1-1.187-1.138c-.022-.668-.037-1.346-.051-2.018a1.189,1.189,0,0,1,2.378-.042c.012.661.029,1.328.051,1.984a1.184,1.184,0,0,1-1.152,1.214Zm277.111-2.459h-.019A1.179,1.179,0,0,1,1065.2,37c.01-.655.015-1.324.015-1.989l0-.2a1.181,1.181,0,0,1,1.186-1.177h0a1.181,1.181,0,0,1,1.189,1.172v.206c0,.678-.005,1.36-.015,2.026A1.18,1.18,0,0,1,1066.392,38.19ZM789.276,31.963h-.037a1.183,1.183,0,0,1-1.153-1.21c.022-.671.048-1.351.078-2.021a1.189,1.189,0,0,1,2.376.1c-.031.66-.058,1.328-.076,1.989A1.183,1.183,0,0,1,789.276,31.963ZM1066.233,29.3a1.182,1.182,0,0,1-1.186-1.116c-.034-.668-.073-1.336-.114-1.987a1.188,1.188,0,0,1,2.371-.149c.044.661.083,1.339.119,2.019a1.184,1.184,0,0,1-1.13,1.232ZM789.818,23.29c-.037,0-.075,0-.112,0a1.18,1.18,0,0,1-1.072-1.281c.063-.665.131-1.343.2-2.011a1.189,1.189,0,0,1,2.365.25c-.073.66-.141,1.326-.2,1.981A1.184,1.184,0,0,1,789.818,23.29Zm275.7-2.655a1.186,1.186,0,0,1-1.181-1.042c-.073-.653-.154-1.318-.24-1.976a1.189,1.189,0,0,1,2.359-.3c.087.668.168,1.344.245,2.009a1.177,1.177,0,0,1-1.048,1.3A1.23,1.23,0,0,1,1065.521,20.635ZM790.912,14.669a1.417,1.417,0,0,1-.187-.013,1.177,1.177,0,0,1-.989-1.344c.107-.671.219-1.343.333-2a1.192,1.192,0,0,1,1.376-.958,1.175,1.175,0,0,1,.968,1.358c-.112.643-.223,1.3-.328,1.962A1.187,1.187,0,0,1,790.912,14.669Zm273.345-2.634a1.184,1.184,0,0,1-1.169-.968c-.119-.65-.241-1.308-.367-1.955a1.175,1.175,0,0,1,.941-1.376,1.188,1.188,0,0,1,1.393.932c.129.658.253,1.326.374,1.989a1.177,1.177,0,0,1-.963,1.363A1.268,1.268,0,0,1,1064.257,12.036Zm-271.7-5.9a1.258,1.258,0,0,1-.26-.029,1.175,1.175,0,0,1-.9-1.4c.146-.65.3-1.313.462-1.971a1.189,1.189,0,0,1,1.432-.869,1.175,1.175,0,0,1,.88,1.417c-.156.646-.309,1.3-.454,1.937A1.19,1.19,0,0,1,792.558,6.134Zm269.885-2.6a1.186,1.186,0,0,1-1.155-.895c-.16-.646-.324-1.294-.493-1.929a1.175,1.175,0,0,1,.851-1.433,1.194,1.194,0,0,1,1.452.841c.168.645.338,1.306.5,1.962a1.174,1.174,0,0,1-.871,1.42A1.192,1.192,0,0,1,1062.443,3.534ZM794.753-2.28a1.219,1.219,0,0,1-.335-.047,1.175,1.175,0,0,1-.809-1.459c.192-.641.389-1.292.589-1.937a1.194,1.194,0,0,1,1.486-.777,1.172,1.172,0,0,1,.786,1.469c-.2.634-.392,1.276-.579,1.905A1.185,1.185,0,0,1,794.753-2.28Zm265.329-2.556a1.188,1.188,0,0,1-1.135-.822c-.2-.629-.406-1.267-.615-1.893a1.172,1.172,0,0,1,.756-1.484,1.19,1.19,0,0,1,1.5.747c.213.638.423,1.287.627,1.927a1.172,1.172,0,0,1-.78,1.472A1.175,1.175,0,0,1,1060.082-4.836ZM797.491-10.555a1.188,1.188,0,0,1-.406-.07,1.171,1.171,0,0,1-.712-1.506c.236-.64.476-1.281.717-1.9a1.191,1.191,0,0,1,1.532-.68,1.172,1.172,0,0,1,.691,1.516c-.236.611-.474,1.24-.7,1.87A1.189,1.189,0,0,1,797.491-10.555Zm259.693-2.484a1.189,1.189,0,0,1-1.109-.754c-.238-.611-.486-1.232-.737-1.85a1.172,1.172,0,0,1,.659-1.529,1.2,1.2,0,0,1,1.548.653c.257.628.508,1.261.751,1.882a1.172,1.172,0,0,1-.683,1.519A1.2,1.2,0,0,1,1057.184-13.039Zm-256.422-5.6a1.2,1.2,0,0,1-.476-.1,1.167,1.167,0,0,1-.612-1.548c.27-.613.552-1.235.836-1.851a1.194,1.194,0,0,1,1.575-.584,1.169,1.169,0,0,1,.589,1.556c-.279.606-.555,1.22-.822,1.821A1.19,1.19,0,0,1,800.762-18.642Zm253.006-2.389a1.188,1.188,0,0,1-1.079-.685c-.278-.6-.566-1.2-.853-1.794a1.167,1.167,0,0,1,.561-1.566,1.192,1.192,0,0,1,1.583.554c.294.6.584,1.217.868,1.825a1.17,1.17,0,0,1-.583,1.559A1.207,1.207,0,0,1,1053.768-21.03ZM804.549-26.5a1.179,1.179,0,0,1-.545-.131,1.17,1.17,0,0,1-.51-1.583c.309-.594.632-1.2.953-1.794a1.2,1.2,0,0,1,1.609-.483,1.17,1.17,0,0,1,.489,1.591c-.318.586-.633,1.178-.938,1.764A1.19,1.19,0,0,1,804.549-26.5Zm245.3-2.284a1.191,1.191,0,0,1-1.047-.616c-.318-.579-.642-1.163-.968-1.739a1.169,1.169,0,0,1,.459-1.6,1.2,1.2,0,0,1,1.619.452c.33.584.662,1.18.984,1.767a1.167,1.167,0,0,1-.482,1.593A1.2,1.2,0,0,1,1049.848-28.788ZM808.833-34.106a1.2,1.2,0,0,1-.61-.168,1.167,1.167,0,0,1-.408-1.613c.346-.572.707-1.155,1.065-1.729A1.2,1.2,0,0,1,810.518-38a1.169,1.169,0,0,1,.385,1.618c-.355.566-.708,1.136-1.05,1.7A1.192,1.192,0,0,1,808.833-34.106Zm236.6-2.182a1.19,1.19,0,0,1-1.009-.552c-.353-.557-.713-1.121-1.075-1.675a1.166,1.166,0,0,1,.354-1.625,1.2,1.2,0,0,1,1.642.351c.369.564.737,1.136,1.1,1.705a1.165,1.165,0,0,1-.379,1.618A1.189,1.189,0,0,1,1045.433-36.288ZM813.6-41.423a1.189,1.189,0,0,1-.674-.208,1.166,1.166,0,0,1-.3-1.633c.385-.557.783-1.115,1.175-1.66a1.2,1.2,0,0,1,1.658-.277,1.167,1.167,0,0,1,.28,1.638c-.387.537-.775,1.086-1.155,1.63A1.189,1.189,0,0,1,813.6-41.423Zm226.95-2.076a1.188,1.188,0,0,1-.966-.492c-.393-.537-.79-1.078-1.182-1.6a1.165,1.165,0,0,1,.248-1.643,1.2,1.2,0,0,1,1.665.247c.4.535.8,1.084,1.2,1.633a1.17,1.17,0,0,1-.273,1.64A1.21,1.21,0,0,1,1040.546-43.5Zm-221.73-4.926a1.188,1.188,0,0,1-.734-.252,1.166,1.166,0,0,1-.2-1.65c.421-.527.851-1.061,1.277-1.581a1.2,1.2,0,0,1,1.675-.173,1.169,1.169,0,0,1,.173,1.653c-.419.512-.843,1.034-1.257,1.554A1.193,1.193,0,0,1,818.815-48.425Zm216.39-1.969a1.189,1.189,0,0,1-.922-.431c-.421-.509-.853-1.024-1.284-1.529a1.166,1.166,0,0,1,.146-1.655,1.2,1.2,0,0,1,1.673.143c.44.514.878,1.037,1.306,1.554a1.165,1.165,0,0,1-.168,1.653A1.187,1.187,0,0,1,1035.205-50.394ZM824.47-55.084a1.2,1.2,0,0,1-.793-.3,1.166,1.166,0,0,1-.092-1.66c.452-.5.916-1,1.376-1.5a1.2,1.2,0,0,1,1.682-.069,1.167,1.167,0,0,1,.068,1.66c-.454.485-.909.982-1.352,1.474A1.2,1.2,0,0,1,824.47-55.084Zm204.962-1.86a1.193,1.193,0,0,1-.871-.376c-.455-.483-.919-.97-1.379-1.447a1.165,1.165,0,0,1,.039-1.662,1.2,1.2,0,0,1,1.68.037c.469.487.941.98,1.4,1.472a1.167,1.167,0,0,1-.063,1.662A1.2,1.2,0,0,1,1029.432-56.944ZM830.538-61.375a1.194,1.194,0,0,1-.848-.351,1.166,1.166,0,0,1,.014-1.662c.486-.473.98-.948,1.469-1.41a1.2,1.2,0,0,1,1.68.037,1.165,1.165,0,0,1-.037,1.662c-.479.453-.965.92-1.442,1.385A1.2,1.2,0,0,1,830.538-61.375Zm192.713-1.749a1.2,1.2,0,0,1-.82-.324c-.482-.453-.977-.91-1.468-1.358a1.167,1.167,0,0,1-.068-1.662,1.2,1.2,0,0,1,1.68-.065c.5.455,1,.921,1.495,1.383a1.163,1.163,0,0,1,.042,1.66A1.188,1.188,0,0,1,1023.251-63.124ZM836.992-67.275a1.2,1.2,0,0,1-.9-.4,1.167,1.167,0,0,1,.119-1.658c.513-.44,1.036-.883,1.554-1.313a1.2,1.2,0,0,1,1.677.141,1.165,1.165,0,0,1-.144,1.655c-.508.423-1.023.859-1.529,1.292A1.2,1.2,0,0,1,836.992-67.275Zm179.691-1.633a1.2,1.2,0,0,1-.761-.274c-.513-.423-1.035-.849-1.554-1.266a1.166,1.166,0,0,1-.173-1.653,1.2,1.2,0,0,1,1.673-.171c.528.425,1.06.858,1.58,1.287a1.165,1.165,0,0,1,.149,1.655A1.194,1.194,0,0,1,1016.684-68.908Zm-172.876-3.85a1.194,1.194,0,0,1-.946-.463,1.167,1.167,0,0,1,.224-1.647c.544-.408,1.092-.816,1.634-1.214a1.2,1.2,0,0,1,1.665.245,1.169,1.169,0,0,1-.25,1.645c-.532.389-1.074.791-1.605,1.192A1.2,1.2,0,0,1,843.807-72.758Zm165.953-1.516a1.2,1.2,0,0,1-.7-.228c-.533-.388-1.082-.781-1.632-1.167a1.169,1.169,0,0,1-.279-1.638,1.2,1.2,0,0,1,1.659-.275c.557.393,1.116.792,1.66,1.187a1.166,1.166,0,0,1,.255,1.643A1.193,1.193,0,0,1,1009.76-74.274Zm-158.8-3.53a1.187,1.187,0,0,1-.989-.524,1.165,1.165,0,0,1,.328-1.628c.564-.373,1.138-.747,1.707-1.109a1.2,1.2,0,0,1,1.644.347,1.167,1.167,0,0,1-.352,1.625c-.559.358-1.125.725-1.678,1.091A1.21,1.21,0,0,1,850.957-77.8ZM1002.505-79.2a1.207,1.207,0,0,1-.64-.185c-.566-.359-1.14-.717-1.705-1.064a1.167,1.167,0,0,1-.384-1.618,1.2,1.2,0,0,1,1.638-.378c.576.352,1.158.717,1.736,1.081a1.164,1.164,0,0,1,.358,1.621A1.193,1.193,0,0,1,1002.505-79.2ZM858.412-82.391a1.193,1.193,0,0,1-1.031-.586,1.17,1.17,0,0,1,.433-1.606c.59-.337,1.186-.673,1.775-1a1.2,1.2,0,0,1,1.619.452,1.165,1.165,0,0,1-.457,1.6c-.577.321-1.165.651-1.744.984A1.191,1.191,0,0,1,858.412-82.391Zm136.534-1.266a1.2,1.2,0,0,1-.576-.148c-.586-.321-1.182-.643-1.772-.955a1.166,1.166,0,0,1-.486-1.59,1.2,1.2,0,0,1,1.609-.482c.6.317,1.206.645,1.8.972a1.167,1.167,0,0,1,.464,1.6A1.189,1.189,0,0,1,994.946-83.657ZM866.141-86.5a1.189,1.189,0,0,1-1.063-.651,1.169,1.169,0,0,1,.533-1.576c.6-.3,1.221-.594,1.834-.885a1.2,1.2,0,0,1,1.586.551,1.17,1.17,0,0,1-.557,1.568c-.6.285-1.211.579-1.8.869A1.19,1.19,0,0,1,866.141-86.5Zm120.97-1.135a1.2,1.2,0,0,1-.51-.114c-.6-.282-1.218-.566-1.829-.841a1.167,1.167,0,0,1-.586-1.556,1.191,1.191,0,0,1,1.573-.581c.622.279,1.248.567,1.862.854a1.169,1.169,0,0,1,.566,1.566A1.19,1.19,0,0,1,987.111-87.635ZM874.118-90.114a1.19,1.19,0,0,1-1.1-.72,1.169,1.169,0,0,1,.634-1.537c.625-.26,1.26-.519,1.887-.767a1.193,1.193,0,0,1,1.548.65,1.173,1.173,0,0,1-.659,1.529c-.615.245-1.238.5-1.853.754A1.2,1.2,0,0,1,874.118-90.114Zm104.914-1a1.187,1.187,0,0,1-.438-.084c-.625-.247-1.259-.49-1.884-.725a1.17,1.17,0,0,1-.686-1.516,1.193,1.193,0,0,1,1.534-.68c.635.24,1.279.487,1.914.737a1.171,1.171,0,0,1,.666,1.526A1.19,1.19,0,0,1,979.032-91.111Zm-96.713-2.112a1.187,1.187,0,0,1-1.123-.789,1.17,1.17,0,0,1,.732-1.5c.644-.222,1.3-.44,1.94-.65a1.192,1.192,0,0,1,1.5.745,1.174,1.174,0,0,1-.758,1.485c-.632.206-1.274.421-1.9.638A1.178,1.178,0,0,1,882.319-93.223Zm88.422-.851a1.154,1.154,0,0,1-.367-.057c-.64-.2-1.289-.408-1.928-.6a1.175,1.175,0,0,1-.785-1.47,1.19,1.19,0,0,1,1.488-.775c.649.2,1.31.4,1.958.614a1.171,1.171,0,0,1,.764,1.48A1.189,1.189,0,0,1,970.741-94.074Zm-80.027-1.736a1.189,1.189,0,0,1-1.147-.861,1.175,1.175,0,0,1,.831-1.447c.656-.18,1.322-.358,1.976-.525a1.188,1.188,0,0,1,1.451.839,1.172,1.172,0,0,1-.849,1.433c-.644.168-1.3.341-1.943.517A1.228,1.228,0,0,1,890.713-95.809Zm71.575-.688a1.192,1.192,0,0,1-.3-.039c-.647-.163-1.3-.324-1.953-.478a1.173,1.173,0,0,1-.878-1.417,1.189,1.189,0,0,1,1.434-.868c.663.158,1.33.321,1.988.487a1.175,1.175,0,0,1,.858,1.43A1.189,1.189,0,0,1,962.288-96.5ZM899.257-97.86a1.187,1.187,0,0,1-1.164-.935,1.178,1.178,0,0,1,.921-1.391c.666-.138,1.34-.272,2.008-.4a1.187,1.187,0,0,1,1.393.93,1.176,1.176,0,0,1-.941,1.378c-.656.124-1.318.257-1.972.393A1.223,1.223,0,0,1,899.257-97.86Zm54.448-.522a1.286,1.286,0,0,1-.224-.022c-.652-.123-1.318-.242-1.979-.354a1.178,1.178,0,0,1-.967-1.36,1.186,1.186,0,0,1,1.374-.957c.671.116,1.35.237,2.015.363a1.174,1.174,0,0,1,.948,1.371A1.189,1.189,0,0,1,953.705-98.382Zm-45.79-.987a1.184,1.184,0,0,1-1.174-1.009,1.177,1.177,0,0,1,1.007-1.329c.669-.1,1.35-.188,2.028-.274a1.186,1.186,0,0,1,1.332,1.015,1.178,1.178,0,0,1-1.028,1.314c-.666.086-1.335.176-1.994.269A1.18,1.18,0,0,1,907.915-99.369Zm37.1-.356c-.048,0-.1,0-.148-.008-.657-.081-1.33-.158-2-.23a1.18,1.18,0,0,1-1.053-1.3,1.189,1.189,0,0,1,1.313-1.041c.68.074,1.362.153,2.033.235a1.176,1.176,0,0,1,1.033,1.311A1.183,1.183,0,0,1,945.017-99.725Zm-28.36-.608a1.185,1.185,0,0,1-1.186-1.081,1.18,1.18,0,0,1,1.092-1.266c.673-.054,1.359-.1,2.04-.146a1.18,1.18,0,0,1,1.264,1.1,1.177,1.177,0,0,1-1.108,1.249c-.671.044-1.347.092-2.009.144C916.719-100.334,916.687-100.333,916.656-100.333Zm19.606-.186c-.026,0-.049,0-.073,0-.666-.039-1.342-.074-2.011-.1a1.181,1.181,0,0,1-1.133-1.227,1.193,1.193,0,0,1,1.243-1.121c.678.03,1.366.067,2.044.107a1.183,1.183,0,0,1,1.116,1.244A1.183,1.183,0,0,1,936.262-100.519Zm-10.822-.232a1.184,1.184,0,0,1-1.189-1.155,1.185,1.185,0,0,1,1.17-1.2c.676-.01,1.367-.017,2.045-.018h0a1.182,1.182,0,0,1,1.189,1.172,1.181,1.181,0,0,1-1.186,1.178c-.669,0-1.345.008-2.013.018Z" transform="translate(1.898 1.875)"/><ellipse class="b" cx="123.534" cy="32.283" rx="123.534" ry="32.283" transform="translate(804.079 114.103)"/></g><g transform="translate(272.464 -36.53)"><g transform="translate(-191.834 36.529)"><g transform="translate(5.336)"><g transform="translate(11.151 274.777)"><path class="c" d="M-97.285,108.036h0v-9.6L-133.463,99.8c-2.454-.5-3.995-.812-3.995-.812a24.514,24.514,0,0,0-4.536.037l-5.229,1.3-40.971,1.555v9.132c-.138.353.009.826.945,1.39,2.238,1.358,46.113,11.879,46.113,11.879a6.463,6.463,0,0,0,3.678,0c2.555-.527,39.247-15.016,39.247-15.016S-97.2,108.655-97.285,108.036Z" transform="translate(188.242 -89.291)"/><path class="d" d="M-169.915,99.254c-1.913-.385-3.078-.624-3.078-.624a24.513,24.513,0,0,0-4.536.037l-.8.2v24.653c1.059.257,1.66.4,1.66.4a6.463,6.463,0,0,0,3.678,0c.372-.078,1.482-.459,3.078-1.037Z" transform="translate(223.776 -88.93)"/><path class="e" d="M-141.991,96.572l-45.255,11.214s-2.234.8,0,2.16,46.113,11.879,46.113,11.879a6.463,6.463,0,0,0,3.678,0c2.555-.527,39.247-15.012,39.247-15.012s2.1-1.275,0-2.009-39.247-8.27-39.247-8.27A24.931,24.931,0,0,0-141.991,96.572Z" transform="translate(188.239 -96.439)"/><path class="f" d="M-109,104.8c-2.105-.734-39.247-8.27-39.247-8.27a24.931,24.931,0,0,0-4.536.037l-32.45,8.04c11.576-1.546,23.744-.894,34.018,4.1a39.482,39.482,0,0,1,12.521,9.659c11.659-4.44,29.693-11.553,29.693-11.553S-106.9,105.538-109,104.8Z" transform="translate(199.029 -96.439)"/><g class="g" transform="translate(8.831 10.182)"><path class="e" d="M-148.305,112.189s-24.277-4.784-38.009-7.857c13.2,3.518,38.275,9.531,38.275,9.531a6.463,6.463,0,0,0,3.678,0c2.555-.527,39.247-15.012,39.247-15.012a3.177,3.177,0,0,0,.271-.193c-4.981,1.738-37.431,13.044-39.788,13.53A6.389,6.389,0,0,1-148.305,112.189Z" transform="translate(186.314 -98.659)"/></g><path class="h" d="M-178.672,99.587l-5.632,1.343,19.488,4.081,4.795-1.425Z" transform="translate(202.352 -85.148)"/><path class="i" d="M-183.077,99.587l13.856,5.424,4.795-1.425Z" transform="translate(206.756 -85.148)"/></g><g transform="translate(31.438 167.773)"><g transform="translate(0 98.881)"><path class="j" d="M-181.68,98.294s-.193.115-.459.284a2.183,2.183,0,0,0-.761.729.988.988,0,0,0-.078.509,2.424,2.424,0,0,0,.142.55c.055.179.138.321.17.427.05.11.073.179.073.179a1.426,1.426,0,0,1-.142-.115,2.166,2.166,0,0,1-.349-.358,1.915,1.915,0,0,1-.344-.656,1.409,1.409,0,0,1-.046-.44,1.024,1.024,0,0,1,.105-.422,1.416,1.416,0,0,1,1.1-.7A1.761,1.761,0,0,1-181.68,98.294Z" transform="translate(185.02 -81.774)"/><path class="k" d="M-153.241,94.668c-2.688.486-3.871-.28-6.572.17-.472,3.564-14.039,13.622-22.148,16.291-1.266-.592-2.417.862-1.555,2.234a1.5,1.5,0,0,0,2.16.482,1.648,1.648,0,0,0,2.348.683,4.076,4.076,0,0,0,2.573.3,2.356,2.356,0,0,0,3.133.156c1.991.871,3.541.986,5.38-1.133,4.174.11,5.669-.115,9.705-3.091,3.894-2.857,5.33-3.463,7.123-3.66s3.394-3.834.3-8.609C-152.136,96.415-152.833,95.388-153.241,94.668Z" transform="translate(183.816 -94.668)"/><g class="l" transform="translate(0.046)"><path class="k" d="M-153.277,94.668c-.5.092-1,.188-1.486.275.949,1.656,2.683,3.339,3.912,6.522,1.729,4.527-1.275,4.72-3.614,4.724-1.394,0-5.068,6.572-13.828,6.779-1.376.014-3.495,3.321-6.219.257.362,1.8-2.449,1.775-3.165-.376-.243,1.509-2.174,1.284-2.688-.436.05,1.816-1.674,1.33-1.78-.147-.6,1.5-1.688.89-1.66-.06-.041,1.243,1.105,2.546,2.325,1.582.633.729,1.463,1.481,2.431.688a3.574,3.574,0,0,0,2.578.349,2.327,2.327,0,0,0,3.133.138,4.358,4.358,0,0,0,2.624.582,4.253,4.253,0,0,0,2.757-1.7c4.174.11,5.669-.115,9.705-3.091,3.894-2.857,5.33-3.463,7.123-3.66s3.394-3.834.3-8.609C-152.172,96.415-152.869,95.388-153.277,94.668Z" transform="translate(183.806 -94.668)"/></g><path class="j" d="M-180.333,103.556a2.019,2.019,0,0,1-.358-.28,2.864,2.864,0,0,1-.367-.394,2.681,2.681,0,0,1-.4-.587,4.52,4.52,0,0,1-.316-.8,5.461,5.461,0,0,1-.078-.917,3.548,3.548,0,0,1,.17-.927,2.5,2.5,0,0,1,.454-.812,2.636,2.636,0,0,1,.706-.546,2.817,2.817,0,0,1,.784-.316,4.072,4.072,0,0,1,1.518-.1,4.2,4.2,0,0,1,1.1.284,1.456,1.456,0,0,1,.381.239,1.283,1.283,0,0,0-.394-.124,4,4,0,0,0-1.041-.078,5.232,5.232,0,0,0-1.371.257,3.439,3.439,0,0,0-.683.321,2.06,2.06,0,0,0-.582.486,1.133,1.133,0,0,0-.22.3.911.911,0,0,0-.174.353,3.9,3.9,0,0,0-.184.775,5.532,5.532,0,0,0,0,.78,4.329,4.329,0,0,0,.2.711,3.376,3.376,0,0,0,.275.592c.092.17.206.312.28.427A2.829,2.829,0,0,0-180.333,103.556Z" transform="translate(190.847 -83.26)"/><path class="j" d="M-181.094,102.449a3.1,3.1,0,0,1-.743-.615,2.392,2.392,0,0,1-.3-.394,2.725,2.725,0,0,1-.252-.5,1.976,1.976,0,0,1-.128-.587,2.206,2.206,0,0,1,.05-.605,1.9,1.9,0,0,1,.238-.5,1.508,1.508,0,0,1,.316-.39,2.747,2.747,0,0,1,.711-.463,1.813,1.813,0,0,1,.321-.124l.252-.064a1.483,1.483,0,0,1,.216-.06s-.06.069-.156.161c-.055.041-.124.1-.2.161a1.862,1.862,0,0,0-.238.206c-.092.078-.183.17-.284.257a2.818,2.818,0,0,0-.261.3,1.445,1.445,0,0,0-.248.353,1.357,1.357,0,0,0-.165.394,2.264,2.264,0,0,0,.353,1.7c.133.225.261.431.353.573S-181.094,102.449-181.094,102.449Z" transform="translate(188.456 -82.223)"/><path class="j" d="M-181.544,102.082a2.478,2.478,0,0,1-.738-.436,3.26,3.26,0,0,1-.312-.307,2.635,2.635,0,0,1-.294-.431,1.767,1.767,0,0,1-.193-.541,1.8,1.8,0,0,1-.014-.564,1.459,1.459,0,0,1,.165-.5,1.128,1.128,0,0,1,.252-.381,2.551,2.551,0,0,1,.578-.5,4.388,4.388,0,0,1,.491-.225,1.308,1.308,0,0,1,.188-.069l-.119.165c-.092.092-.2.229-.344.394a2.115,2.115,0,0,1-.216.266c-.078.1-.124.2-.2.307a1.965,1.965,0,0,0-.179.353,1.31,1.31,0,0,0-.1.367,1.979,1.979,0,0,0,.482,1.459A6.417,6.417,0,0,0-181.544,102.082Z" transform="translate(186.348 -82.273)"/></g><g transform="translate(11.013)"><path class="k" d="M-158.293,83.581s-6.371,31.9-5.875,35.61c.44,3.243,4.44,7.7,3.509,24.7s-.711,33.954-.711,33.954l-8.334-1.4s-8.962-54.126-10.586-65.271.17-36.637.11-37.944S-158.293,83.581-158.293,83.581Z" transform="translate(183.025 -73.027)"/><path class="m" d="M-156.684,83.663s-6.371,31.9-5.875,35.61c.44,3.243,4.44,7.7,3.509,24.7s-.358,31.835-.358,31.835l-9.925-1.839s-9.98-52.378-11.6-63.523,1.371-35.931,1.312-37.238S-156.684,83.663-156.684,83.663Z" transform="translate(181.415 -73.109)"/><path class="n" d="M-180.195,83.112c.858.206,1.665.578,2.532.794.289.064,1.578.472,1.844.225.11-.1.271.234.275.3.069.55-.752.615-1.137.605a4.745,4.745,0,0,1-3.426-1.156C-180.227,83.763-180.644,83.006-180.195,83.112Z" transform="translate(185.062 -37.27)"/></g></g><path class="n" d="M-174.6,83.112c.853.206,1.665.578,2.527.794.289.064,1.578.472,1.844.225.11-.1.271.234.275.3.069.55-.752.615-1.142.605a4.74,4.74,0,0,1-3.422-1.156C-174.635,83.763-175.048,83.006-174.6,83.112Z" transform="translate(247.578 130.504)"/><path class="n" d="M-177.094,69.955a14.991,14.991,0,0,1,.284,1.582,20.705,20.705,0,0,0,.715,3.114l.073-.1C-174.934,72.922-175.97,71.239-177.094,69.955Z" transform="translate(239.364 83.352)"/><g transform="translate(51.362 269.347)"><path class="j" d="M-176.908,98.627s-.225.105-.532.266a2.249,2.249,0,0,0-.908.716,1.014,1.014,0,0,0-.142.55,3.063,3.063,0,0,0,.1.619c.046.2.115.362.142.482a1,1,0,0,1,.064.2,1.965,1.965,0,0,1-.147-.142,2.012,2.012,0,0,1-.335-.431,1.8,1.8,0,0,1-.312-.757,1.212,1.212,0,0,1,0-.482,1.355,1.355,0,0,1,.165-.445,1.522,1.522,0,0,1,1.261-.656A2.066,2.066,0,0,1-176.908,98.627Z" transform="translate(181.129 -83.441)"/><path class="k" d="M-153.08,96.039c3-.2,5.985-.555,8.985-.784.367.826,1.023,2.023,2.266,4.426,2.88,5.568.738,9.366-1.243,9.4s-3.614.541-8.187,3.266c-4.738,2.812-6.4,2.9-10.957,2.339-2.238,2.124-3.917,1.83-6.008.665a2.589,2.589,0,0,1-3.417-.5,4.474,4.474,0,0,1-2.789-.6,1.81,1.81,0,0,1-2.49-1,1.648,1.648,0,0,1-2.316-.766,1.7,1.7,0,0,1,.472-2.275c.1-.193.2-.381.33-.61,1.087-1.793,4.72-1.353,6.417-1.023C-163.505,105.341-153.814,99.209-153.08,96.039Z" transform="translate(179.472 -95.255)"/><g class="l" transform="translate(0.063 10.586)"><path class="k" d="M-177.617,103.159c-.055,1.628,1.784,2.357,1.922.353.381,1.94,2.467,2.39,2.9.761.546,2.426,3.623,2.752,3.422.752,2.651,3.646,5.316.238,6.834.372,7.068.532,11.489-3.009,13.943-4.862a8.51,8.51,0,0,1,1.142-.417c1.78-.482,3.816.078,5.463-.94a3.742,3.742,0,0,0,1.436-1.614c-.3,2.027-1.459,3.22-2.568,3.238-1.981.037-3.614.541-8.187,3.266-4.738,2.812-6.4,2.9-10.957,2.339a4.724,4.724,0,0,1-3.192,1.564,4.893,4.893,0,0,1-2.825-.922,2.552,2.552,0,0,1-3.408-.482,3.875,3.875,0,0,1-2.784-.66c-1.151.766-1.972-.142-2.587-1-1.436.931-2.564-.619-2.376-1.986C-179.571,103.947-178.443,104.745-177.617,103.159Z" transform="translate(179.458 -97.563)"/></g><path class="j" d="M-176.634,103.175a3.277,3.277,0,0,1-.743-.752,2.9,2.9,0,0,1-.284-.459,2.566,2.566,0,0,1-.225-.578,2.078,2.078,0,0,1-.078-.679,2.185,2.185,0,0,1,.124-.647,2.106,2.106,0,0,1,.312-.532,1.672,1.672,0,0,1,.394-.39,3.182,3.182,0,0,1,.826-.431,1.467,1.467,0,0,1,.358-.092c.115-.018.206-.041.284-.06.147-.018.239-.023.239-.023s-.06.05-.193.142c-.064.041-.138.1-.225.156a3.106,3.106,0,0,0-.284.206c-.11.087-.216.174-.33.252a2.1,2.1,0,0,0-.33.312,1.342,1.342,0,0,0-.3.353,1.411,1.411,0,0,0-.225.417,2.458,2.458,0,0,0,.2,1.885,5.434,5.434,0,0,0,.339.665C-176.685,103.083-176.634,103.175-176.634,103.175Z" transform="translate(184.864 -83.498)"/><path class="j" d="M-177.1,102.763a2.544,2.544,0,0,1-.757-.555,1.938,1.938,0,0,1-.312-.372,2.01,2.01,0,0,1-.275-.5,1.923,1.923,0,0,1-.151-.61,1.921,1.921,0,0,1,.041-.628,1.975,1.975,0,0,1,.229-.518,1.525,1.525,0,0,1,.317-.39,3.028,3.028,0,0,1,.7-.5c.216-.1.422-.138.56-.193.138-.032.216-.055.216-.055s-.055.064-.16.174c-.1.092-.243.229-.413.394a3.418,3.418,0,0,1-.257.271,3.676,3.676,0,0,0-.257.316,1.536,1.536,0,0,0-.229.358,1.224,1.224,0,0,0-.156.394,2.184,2.184,0,0,0,.376,1.647A5.4,5.4,0,0,0-177.1,102.763Z" transform="translate(182.574 -83.825)"/><path class="j" d="M-172.391,98.868s-4.981-.275-4.77,1.546,1.092,2.018,1.092,2.018a2.942,2.942,0,0,1-.266-2.316C-175.808,99.143-172.391,98.868-172.391,98.868Z" transform="translate(187.739 -82.351)"/></g><path class="k" d="M-148.317,72.759a10.612,10.612,0,0,1,.261,5.008c-2.706,10.98-11.5,41.05-11.09,44.1.436,3.243,4.44,7.705,3.509,24.708s-.133,32.716-.133,32.716l-8.912-.17s-8.962-54.121-10.59-65.266c-1.605-11.15-.757-36.972.115-37.944C-170.451,70.672-148.317,72.759-148.317,72.759Z" transform="translate(242.655 91.937)"/><path class="m" d="M-148.317,72.759a10.612,10.612,0,0,1,.261,5.008c-2.706,10.98-7.825,39.6-8.2,43.9-.289,3.256,1.555,7.9.619,24.9s-.188,31.45-.188,31.45l-8.953.514s-8.866-53.539-10.494-64.684c-1.605-11.15-.757-36.972.115-37.944C-170.451,70.672-148.317,72.759-148.317,72.759Z" transform="translate(242.655 91.937)"/><path class="n" d="M-175.376,83.2c.853.206,1.665.578,2.527.793.294.064,1.578.472,1.844.229.11-.1.271.229.275.293.069.555-.757.615-1.137.605a4.744,4.744,0,0,1-3.426-1.156C-175.413,83.843-175.825,83.09-175.376,83.2Z" transform="translate(244.791 130.805)"/><path class="n" d="M-172.4,97.5c.7-.225,1.454-.312,2.169-.537.239-.078,1.344-.349,1.408-.647.032-.128.3.05.339.1.316.381-.234.789-.509.954a3.9,3.9,0,0,1-2.977.665C-172.107,98-172.767,97.63-172.4,97.5Z" transform="translate(255.814 177.743)"/><path class="m" d="M-179.344,79.166a141.993,141.993,0,0,0-1.844,27.969s11.572,5.114,20.786,4.5l2.183-9.407.6,9.155s13.053,4.1,22.786.417c0,0,7.655-28.161,6.164-33.858s-3.467-7.719-3.467-7.719Z" transform="translate(224.239 84.31)"/><path class="o" d="M-179.08,86.352a76.751,76.751,0,0,1,2.559-14.278l-2.38.449s-3.133,17.438-2.431,31.111c0,0,.908-3.023,1.481-2.825C-179.942,95.988-179.465,91.177-179.08,86.352Z" transform="translate(223.797 90.952)"/><path class="o" d="M-168.271,78.254a40.373,40.373,0,0,0,4.362-2.674c-3.513,1.064-6.907,2.463-10.356,3.715a6.771,6.771,0,0,1,.66.28.525.525,0,0,1,.243.592,94.207,94.207,0,0,0-1.9,12.365c.271.018.541.037.83.05.2-1.142.408-2.289.706-3.4.665-2.518,1.225-5.137,2.059-7.6C-171.129,79.974-169.684,79.034-168.271,78.254Z" transform="translate(245.92 103.527)"/><path class="p" d="M-130.02,77.941c-1.491-5.7-3.467-7.719-3.467-7.719l-47.2,8.944s-.1.532-.243,1.486c2.023,1.367,4.742,1.9,7.022,2.39A66.675,66.675,0,0,0-160.626,84.5,50.721,50.721,0,0,0-147.4,83.1a46.655,46.655,0,0,0,5.536-1.683c1.665-.66,3.137-1.715,4.848-2.229a.532.532,0,0,1,.665.509,48.068,48.068,0,0,1-1.055,9.508c-.647,3.564-1.059,7.16-1.61,10.742a28.02,28.02,0,0,1-4.311,11.691c3.045-.3,4.1,2.669,6.742,1.669C-136.588,113.3-128.529,83.638-130.02,77.941Z" transform="translate(225.588 84.31)"/><g transform="translate(0 91.287)"><g transform="translate(26.276)"><path class="k" d="M-169.744,56.874s-7.389,4.339-12.122,26.166c-4.807,22.171-4.178,39.219,3.293,31.239S-165,73.872-165,73.872a10.33,10.33,0,0,0,3.724-9.581C-162.1,57.933-167.744,55.31-169.744,56.874Z" transform="translate(184.942 -56.433)"/></g><g class="l" transform="translate(33.121)"><path class="k" d="M-166.625,64.29c-.826-6.357-6.472-8.98-8.471-7.416a11.718,11.718,0,0,0-2.055,1.092,38.1,38.1,0,0,0-3.3,7.737,61.406,61.406,0,0,0-2.9,16.612,108.6,108.6,0,0,0,2.463,27.336c6.018-11.787,10.54-35.78,10.54-35.78A10.33,10.33,0,0,0-166.625,64.29Z" transform="translate(183.449 -56.433)"/></g><g transform="translate(9.18 41.811)"><path class="k" d="M-163.011,78.506c-.72,2.917-19.158,32.243-22.823,30.835s-3.9-2.009.014-9.3c3.871-7.215,12.329-25.345,14.516-33.5.821-3.064,4.765,1.674,5.573,4.353C-164.975,73.406-162.4,76.062-163.011,78.506Z" transform="translate(188.669 -65.549)"/></g><path class="k" d="M-171.817,79.268a7.544,7.544,0,0,0-.573-3.568c-1.977-2.853-6.151-3.22-9-1.913-1.651.757-4.013,3.261-5.715,3.853a10.411,10.411,0,0,1-2.44.743,1.013,1.013,0,0,0-.486.128c-1.436.927,0,2.192,1.124,2.472a4.3,4.3,0,0,0,3.224-.674A9.062,9.062,0,0,0-187.916,82a18.153,18.153,0,0,0-2.009,3.986,6.4,6.4,0,0,0-.738,2.7c.124,1.486,1.592,1.174,2.238.17.816-1.248,1.509-2.536,2.413-3.743a9.4,9.4,0,0,1,2.38-2.119,12.152,12.152,0,0,0-1.766,2.555,12.011,12.011,0,0,0-1.1,3.238c-.115.647-.605,1.922-.211,2.587.67,1.115,1.215.812,1.89-.041a10.787,10.787,0,0,0,1.509-3.417,9.935,9.935,0,0,1,2-3.394,13.005,13.005,0,0,0-1.215,2.646c-.518,1.628-.931,4.21.037,5.774.385.619,1.179-.413,1.321-.688.936-1.825,1.032-3.853,1.885-5.669a15.069,15.069,0,0,0-.454,2.922c-.055,1.046-.307,3.3,1,3.669.532.161,1.105-.981,1.261-1.3a7.514,7.514,0,0,0,.532-2.376c.064-.523-.092-3.243.422-3.481,1.22-.56,2.2-1.981,3.11-2.894A5.686,5.686,0,0,0-171.817,79.268Z" transform="translate(190.671 3.217)"/><path class="n" d="M-177.836,74.328c-2.279,2.174-4.687.743-7.293.3-1.807-.312-2.94,1.059-4.6,1.6-.028.009-.055.073-.014.064a8.277,8.277,0,0,0,2.1-.862c1.908-1.046,4.215.394,6.16.665a4.4,4.4,0,0,0,3.811-1.647C-177.566,74.315-177.722,74.218-177.836,74.328Z" transform="translate(193.906 7.579)"/></g><path class="k" d="M-140.5,73.3a27.028,27.028,0,0,0-4.426-5.646,22.559,22.559,0,0,0-11.191-2.312c-2.5.339-2.793-12.631-2.793-12.631l-11.044,6.485s.569,4.059.138,5.738a.517.517,0,0,1-.225.527l-.009,0a.6.6,0,0,1-.115.124,2.3,2.3,0,0,1-.362.17,57.364,57.364,0,0,1-9.682,4.522c-4.357,11.173.949,42.1,1.871,46.4,3.49,16.36.867,26.79.706,26.125,3.917,1.633,12.439,3.7,16.938,3.367,11.888-.867,23.07-3.591,31.716-11.709C-132.327,133.04-144.147,66.728-140.5,73.3Z" transform="translate(222.121 21.492)"/><path class="n" d="M-142.348,80.111c-3.018-2.417-4.132-6.536-4.435-10.26a40.346,40.346,0,0,1,1.518-13.374c-1.537-.376-3.082-.688-4.467-.917a26.51,26.51,0,0,0-1.656,3.917c-.853,2.312-1.472,4.742-2.825,6.829-2.027,3.133-5.031,5.8-8.847,6.389-3.564.546-8.306.2-10.833-2.784-2.834-3.344-2.33-7.334-1.353-11.255-1.156.5-2.307.968-3.362,1.394-.431,1.936-1.073,3.811-1.491,5.756-.587,2.7-.261,6.554-.853,9.242-.642,2.885-.289,6.164-1.394,8.87.61,9.916,2.2,8.43,5.953,24.387s.362,24.272.362,24.272c3.917,1.633,12.439,3.7,16.938,3.367,11.888-.867,23.07-3.591,31.716-11.709-2.192,4.408-3.49-39.151-3.646-39.651C-135.019,83.922-139.137,82.679-142.348,80.111Z" transform="translate(220.524 31.721)"/><path class="q" d="M-144.727,78.846c-4.05-3.885-2.734-21.956-1.9-22.781-.33-.092-1.335-.4-1.656-.482-2.665,2.807-3.619,6.871-5.568,10.659a13.557,13.557,0,0,1-12.562,7.32c-3.986-.188-8.471-1.642-9.811-5.843a13.954,13.954,0,0,1,.486-8.935c-.619.257-1.225.509-1.821.752a40.391,40.391,0,0,0-2.2,11.127c-.294,3.536-.871,11.076-2.591,13.168-.092,8.48,3.4,12.159,5.609,22.534s.706,26.125.706,26.125c3.917,1.633,12.439,3.7,16.938,3.367,11.888-.867,23.07-3.591,31.716-11.709-3.357-9.563-3.366-38.715-3.463-39.045C-135.641,86.391-141.438,82-144.727,78.846Z" transform="translate(220.522 31.807)"/><path class="r" d="M-180.609,67.719a10.97,10.97,0,0,1-.5-2.931,14.116,14.116,0,0,0,.89,5.678c2.142,5.444,8.3,7.389,13.663,5.568,8.306-2.825,12.154-12.081,14.072-20.4l-.179-.05c-2.665,2.807-3.619,6.871-5.568,10.659a13.557,13.557,0,0,1-12.562,7.32C-174.784,73.374-179.27,71.92-180.609,67.719Z" transform="translate(224.909 31.807)"/><path class="r" d="M-135.779,84.736c-4.8,1.289-10.6-3.1-13.888-6.256-4.05-3.885-2.734-21.956-1.9-22.781l-.055-.014a33.45,33.45,0,0,0-1.559,17.493c.72,3.619,2.133,7.27,4.954,9.788,2.183,1.945,2.5,3.2,4.775,4.94,2.137,1.637,2.706,4.99,3.045,7.471a60.258,60.258,0,0,1,.4,10.086c-.188,6.637,1.605,12.8-2.371,18.355-2.7,3.77-7.091,6.715-11.631,7.164-18.383,1.825-24.506,1.128-26.556-15.039,1.023,6.66-.4,16.181-.4,16.181,3.917,1.633,12.439,3.7,16.938,3.367,11.888-.867,23.07-3.591,31.716-11.709C-135.866,110.806-135.682,85.066-135.779,84.736Z" transform="translate(225.462 32.172)"/><path class="n" d="M-179.158,64.93a.557.557,0,0,1-.055.321c2.252.028,4.775-1.037,6.646-1.8a19.183,19.183,0,0,0,4.972-2.9,71.39,71.39,0,0,1-.656-7.843L-179.3,59.192S-178.727,63.251-179.158,64.93Z" transform="translate(231.466 21.492)"/><g transform="translate(72.418 87.857)"><g transform="translate(16.004 34.79)"><path class="k" d="M-158.848,103.929a17.57,17.57,0,0,0,4.38-1.715c.243-.115.482-.225.725-.344C-154.3,96.6-154.9,91.32-155.706,86.1c-.885-5.7-2.009-11.347-3.408-16.915a13.46,13.46,0,0,0-4.619-5.169c-2.229-1.385-4.99-.945-5.852,2.183-.266.954-1.821,2.99-1.807,3.967,1.229,2.523,7.921,19.745,9.976,26.065C-160.586,98.792-159.683,101.356-158.848,103.929Z" transform="translate(171.392 -63.27)"/></g><g class="l" transform="translate(24.37 36.023)"><path class="k" d="M-161.234,92.475c-.307-2.449-.633-4.894-1.014-7.338-.885-5.7-2.009-11.347-3.408-16.915a13.893,13.893,0,0,0-3.912-4.683C-166.445,73.047-163.688,82.715-161.234,92.475Z" transform="translate(169.568 -63.539)"/></g><path class="k" d="M-158.35,72.757a3.906,3.906,0,0,0-2.22-1.28c-3.018-.5-5.862,2.967-6.724,5.953-.5,1.725-.61,3.766-1.243,5.412a11,11,0,0,1-.982,2.293,1.027,1.027,0,0,0-.211.445c-.261,1.683,1.408,1.5,2.261.867.885-.647,1-2.692,1.252-3.825a18.674,18.674,0,0,0,0,3.788,19.78,19.78,0,0,0,1.358,4.178,6.608,6.608,0,0,0,1.289,2.38c1.032.922,1.711-.367,1.454-1.523-.321-1.449-.734-2.83-.968-4.316a10.669,10.669,0,0,1,.06-3.183,13.907,13.907,0,0,0,.587,3.032,12.674,12.674,0,0,0,1.422,3.009c.349.523.876,1.752,1.536,1.917,1.115.271,1.248-.335,1.11-1.413a11.794,11.794,0,0,0-1.3-3.435,10.971,10.971,0,0,1-.982-3.775,14.184,14.184,0,0,0,.972,2.7c.734,1.481,2.151,3.545,3.733,3.9.628.138.44-1.142.349-1.436-.619-1.926-1.862-3.38-2.518-5.242a15.209,15.209,0,0,0,1.605,2.321c.638.757,2.128,3.646,3.146,2.945.422-.284,1-1.055-1.477-4.995a37.626,37.626,0,0,1-1.986-6.926A6.087,6.087,0,0,0-158.35,72.757Z" transform="translate(193.26 0.779)"/><path class="k" d="M-147.42,93.253q-1.328-4.912-2.954-9.746c-1-2.293-2.114-4.8-3.344-7.554-.789-1.757-1.637-3.472-2.481-5.183a44.923,44.923,0,0,0-6.027-9.723,15.794,15.794,0,0,0-7.4-5.1A6.451,6.451,0,0,0-171,55.685c-5.2,1.908-4.357,8.889-2.2,15.246.128.234.261.477.385.706,2.513,4.554,13.31,23.946,13.938,25.735,4.385,8.072,11.168,14.741,13.283,10.558a11.728,11.728,0,0,0,.963-2.747Q-145.822,99.163-147.42,93.253Z" transform="translate(174.881 -55.685)"/><g class="l" transform="translate(1.758)"><path class="k" d="M-168.7,58.533c3.99,3.371,6.71,8.714,9.09,13.567a145.441,145.441,0,0,1,7.352,18.452q2.835,8.586,5.3,17.342a11.274,11.274,0,0,0,.949-2.711q-1.19-6.02-2.789-11.93-1.328-4.912-2.954-9.746c-1-2.293-2.114-4.8-3.344-7.554-.789-1.757-1.637-3.472-2.481-5.183a44.923,44.923,0,0,0-6.027-9.723,15.794,15.794,0,0,0-7.4-5.1,6.451,6.451,0,0,0-1.371-.257,5.608,5.608,0,0,0-2.124,1.367C-172.544,56.309-170.389,57.1-168.7,58.533Z" transform="translate(174.498 -55.685)"/></g></g><g transform="translate(11.013)"><path class="s" d="M-103.921,62.033c.271.151.628-.257.582-.527-1.761-11.118-12.764-18.631-22.68-22.2-5.733-2.064-12.3-2.555-18.36-2.454a35.9,35.9,0,0,0-9.169,1.408,34.677,34.677,0,0,0-4.628,1.688c-.138.064-.266.128-.395.188a10.868,10.868,0,0,0,.445-1.486c.078-.349.7-2.192-.179-2.114a1.013,1.013,0,0,0-.679.472c-.436.651-1.092,1.193-1.55,1.848a9.128,9.128,0,0,0-1.385,2.972l-.018,0a5.7,5.7,0,0,0-1.908-1.078c-1-.39-2.27-1.142-3.4-.931-.133.028-.307.188-.271.339a4.647,4.647,0,0,0,1.032,1.835,8.981,8.981,0,0,1,.628.849,25.33,25.33,0,0,0-7.389,3.486,40.624,40.624,0,0,0-9.939,8.8c-2.683,3.311-4.894,7.127-5.073,11.457A22.307,22.307,0,0,0-184.8,79.049a4.923,4.923,0,0,0,2.252,2.367c2.261,1.055,5.907-2.28,7.609-3.316a60.933,60.933,0,0,1,21.722-8.526,56.155,56.155,0,0,1,12.714-.56,24.6,24.6,0,0,1,8.407,8.118c2.5,4.385,2.757,9.311,2.458,14.255-.275,4.513-1,8.944-1.624,13.416-.133.926-.862,3.444.56,3.711a.446.446,0,0,0,.408-.133,11.8,11.8,0,0,0,12.315-2.335,13.078,13.078,0,0,0,1.844-2.417c-.055.963-.115,1.926-.1,2.9.014.66.894,1.215,1.413.638,2.513-2.784,3.4-7.513,3.743-11.145a30.638,30.638,0,0,0-.014-5.944,17,17,0,0,0,.89,1.784.828.828,0,0,0,1.28.22c3.059-2.5,4.362-8.136,4.614-11.875a19.337,19.337,0,0,0-1.082-8.343c.188.22.372.44.56.679.541.67,1.436-.009,1.339-.711-.4-3-1.055-7.426-2.715-10.953C-105.43,61.244-104.659,61.616-103.921,62.033Z" transform="translate(188.269 -36.529)"/><path class="t" d="M-148.265,60.693c.271.151.628-.257.582-.527-1.761-11.118-12.764-18.631-22.68-22.2a34.718,34.718,0,0,0-3.6-1.059c.376.183.752.372,1.124.578a28.178,28.178,0,0,1,13.7,16.158.528.528,0,0,1-.876.514,10.015,10.015,0,0,0-2.509-1.968,27.354,27.354,0,0,1,3.192,4.279,24.607,24.607,0,0,1,4.16,13.888c-.018.482-.752.771-.982.261a15.965,15.965,0,0,0-3.665-5.412,12.5,12.5,0,0,1,.55,10.022.529.529,0,0,1-1.014,0c-1.307-3.495-2.605-6.756-5.522-8.939,2.348,5.142,3.009,12.2-.569,16.667-.28.349-.748.087-.881-.229-1.2-2.871-1.348-6.192-2.812-8.944a19.159,19.159,0,0,0-5.412-6.641c.871,3.591,3.889,10.622.771,12.906a31.134,31.134,0,0,1,.738,10c-.275,4.513-1,8.944-1.624,13.416-.133.926-.862,3.444.56,3.711a.446.446,0,0,0,.408-.133,11.8,11.8,0,0,0,12.315-2.335,13.078,13.078,0,0,0,1.844-2.417c-.055.963-.115,1.926-.1,2.9.014.66.894,1.215,1.413.638,2.513-2.784,3.4-7.513,3.743-11.145a30.638,30.638,0,0,0-.014-5.944,17.007,17.007,0,0,0,.89,1.784.828.828,0,0,0,1.28.22c3.059-2.5,4.362-8.136,4.614-11.875a19.337,19.337,0,0,0-1.082-8.343c.188.22.372.44.56.679.541.67,1.436-.009,1.339-.711-.4-3-1.055-7.426-2.715-10.953C-149.774,59.9-149,60.276-148.265,60.693Z" transform="translate(232.613 -35.19)"/><path class="u" d="M-182.141,43.233c-2.61,1.949-4.169,5.274-5.779,8.049a22.974,22.974,0,0,0,1.821,3.633,31.386,31.386,0,0,1,1.426-5.073A60.48,60.48,0,0,1-182.141,43.233Z" transform="translate(189.523 -12.487)"/><path class="u" d="M-182.3,44.294a40.643,40.643,0,0,1-4.128,9.054,17.561,17.561,0,0,0,3.284-1.981,11.7,11.7,0,0,1,.349-4.495C-182.612,46.019-182.451,45.156-182.3,44.294Z" transform="translate(194.874 -8.682)"/><path class="u" d="M-184.461,48.662c.564-.3,1.133-.592,1.706-.876a13.865,13.865,0,0,1-.261-3.7A28.181,28.181,0,0,1-184.461,48.662Z" transform="translate(201.929 -9.431)"/><g transform="translate(7.967 54.801)"><path class="v" d="M-184.04,48.851c-2.573,1.853-4.22,6.453.555,11,1.459,1.39,5.949,2.894,7.325-1.215l-1.8-6.013S-181.462,47-184.04,48.851Z" transform="translate(186.533 -48.478)"/><path class="j" d="M-182.794,49.426a4.538,4.538,0,0,0-3.142,1.037c-.082.055,0,.183.087.151a6.818,6.818,0,0,1,2.582-.472,2.952,2.952,0,0,1,2.307,1.532.112.112,0,0,0,.2-.078A2.328,2.328,0,0,0-182.794,49.426Z" transform="translate(188.552 -45.218)"/></g><path class="w" d="M-175.619,46.05c-.349-.252-.7-.5-1.064-.743-.413-.674-.826-1.339-1.252-2.009C-177.169,44.22-176.408,45.151-175.619,46.05Z" transform="translate(225.334 -12.254)"/><path class="k" d="M-125.612,59.661c0-.009-4.8-19.273-32.716-16.658-15,1.408-23.185,3.509-27.551,5.151-1.559,5.371-1.844,11.1,1.316,16.053,2.619,4.1,6.976,7.907,6.554,13.228-.257,3.178-1.2,6.5.3,9.535A14.8,14.8,0,0,0-171.7,92.95c2.206,1.358,5.573,1.968,8.054,2.683a44.159,44.159,0,0,0,7.71,1.587,27.82,27.82,0,0,0,13.86-2.105c8.031-3.426,16.282-10.214,17.947-19.2C-123.126,70.549-124.314,64.871-125.612,59.661Z" transform="translate(192.779 -14.188)"/><path class="n" d="M-150.686,59.657s-4.412-17.69-29.335-16.869l.147.069a60.916,60.916,0,0,1,8.893,5.233,38.137,38.137,0,0,1,12.462,14.526c2.546,5.4,5.041,12.448,2.812,18.364a17.946,17.946,0,0,1-6.036,7.66,44.278,44.278,0,0,1-9.962,5.93,48.607,48.607,0,0,1-7.788,2.757,27.812,27.812,0,0,0,12.347-2.215c8.031-3.426,16.282-10.214,17.947-19.2C-148.2,70.545-149.388,64.867-150.686,59.657Z" transform="translate(217.853 -14.184)"/><path class="n" d="M-178.161,54.516a4.889,4.889,0,0,0,.922-2.509c-1.605.771-3.087,1.78-4.7,2.541C-180.936,55.438-179.009,55.617-178.161,54.516Z" transform="translate(210.97 18.981)"/><path class="n" d="M-179.553,51.881c1.385-.252,2.757-.638,4.16-.789a37.437,37.437,0,0,1,3.99-.161C-174.191,49.868-177.37,49.726-179.553,51.881Z" transform="translate(219.531 12.429)"/><path class="n" d="M-184.336,51.484c2.674-.032,5.33.33,8,.275C-178.406,49.952-181.96,50.1-184.336,51.484Z" transform="translate(202.377 13.308)"/><path class="x" d="M-178.564,52.44c.05.936,1.908,1.592,4.146,1.468s4-.982,3.954-1.917-1.908-1.6-4.146-1.468S-178.615,51.5-178.564,52.44Z" transform="translate(223.074 13.6)"/><path class="x" d="M-184.861,52.595c.046.844,1.459,1.459,3.156,1.362s3.027-.853,2.981-1.7-1.459-1.463-3.151-1.367S-184.907,51.746-184.861,52.595Z" transform="translate(200.49 14.935)"/><path class="s" d="M-184.773,70.918a.31.31,0,0,0,.5-.046.179.179,0,0,0,.165-.014,3.041,3.041,0,0,0,.926-.839c.037.748.032,2.046.711,2.348a.575.575,0,0,0,.619.055c2.8-1.408,4.444-5.215,5.229-8.678a8.424,8.424,0,0,0,.417,1.9.542.542,0,0,0,.5.413,4.182,4.182,0,0,0,3.128-2.243,18.5,18.5,0,0,0,.532,4.119.28.28,0,0,0,.532.023c1.7-.119,3.27-1.637,4.27-2.9a10.589,10.589,0,0,0,2.014-3.743,11.963,11.963,0,0,0,2.243,3.619.526.526,0,0,0,.826-.083,5.8,5.8,0,0,0,.087-4.2c2.059,2.027,4.371,3.825,7.123,4.087a.478.478,0,0,0,.472-.578,4.1,4.1,0,0,0-1-2.05c1.5,1.2,3.087,2.316,4.587,3.408,1.569,1.147,3.325,2.426,5.357,2.064a.511.511,0,0,0,.381-.605,6.61,6.61,0,0,0-1.454-2.848,8.683,8.683,0,0,0,4.454,2.5.512.512,0,0,0,.523-.5,6.05,6.05,0,0,0-.252-1.541,7.924,7.924,0,0,0,3.027,2.61c1.472.541,2.137-.807,2.027-2.087-.023-.239-.06-.477-.1-.711.078.124.156.239.225.349.917,1.431,2.064,3.582,3.7,4.311,1.715.775,1.908-1.477,1.61-2.623.064.041.124.092.188.138a12.828,12.828,0,0,0,3.128,1.647,18.708,18.708,0,0,0,1.014,5.6c.56,1.353,1.532,2.192,3,1.573a3.181,3.181,0,0,0,1.578-1.885c4.454-3.894,4.252-10.384,2.027-15.507A23.961,23.961,0,0,0-133.6,45.1c-8.182-3.408-17.36-4.252-26.148-3.651a39.586,39.586,0,0,0-12.613,2.665,40.21,40.21,0,0,0-9.205,4.857.435.435,0,0,0-.238-.078c-3.825-.092-5.508,6.683-5.912,9.563C-188.314,62.717-188.03,67.735-184.773,70.918Z" transform="translate(189.353 -19.523)"/><path class="t" d="M-120.7,50.493c.33,3.536-.294,7.1-2.417,9.756-.28.349-.748.087-.881-.229-1.2-2.871-1.348-6.192-2.812-8.944a19.159,19.159,0,0,0-5.412-6.641c.94,3.871,4.38,11.742-.055,13.356-5.242,1.908-7.939-5.091-10.407-9.37.642,2.39,1.44,5.362-.138,6.522-1.656,1.215-4.362-2.706-5.921-4.784.248,2.206,1.119,5.3-1.789,5.054-2.082-.174-4.339-1.706-5.921-2.949-2.16-1.7-3.119-3.775-4.564-5.852.133,1.651.757,3.238.7,4.917a.533.533,0,0,1-.793.459c-2.147-1.518-2.94-3.688-4.128-5.779a15.456,15.456,0,0,1-.5,6.251c-.417,1.119-2.055,2.009-3.087,1.087-1.481-1.316-1.706-3.756-1.61-6.206-.991,4.013-2.266,8.159-6.306,9.3a.544.544,0,0,1-.651-.367,9.914,9.914,0,0,1,.124-5.4c.184-.853.344-1.715.5-2.578a39.253,39.253,0,0,1-4.389,9.462c-1.018,1.468-3.293,3.458-4.467.959-1.156-2.445.362-6.348,1.133-8.678a60.483,60.483,0,0,1,2.532-6.609c-2.573,1.917-4.123,5.174-5.706,7.921-.014.087-.032.183-.041.266-.6,4.261-.312,9.279,2.945,12.462a.31.31,0,0,0,.5-.046.179.179,0,0,0,.165-.014,3.041,3.041,0,0,0,.926-.839c.037.748.032,2.046.711,2.348a.575.575,0,0,0,.619.055c2.8-1.408,4.444-5.215,5.229-8.678a8.424,8.424,0,0,0,.417,1.9.542.542,0,0,0,.5.413,4.182,4.182,0,0,0,3.128-2.243,18.5,18.5,0,0,0,.532,4.119.28.28,0,0,0,.532.023c1.7-.119,3.27-1.637,4.27-2.9a10.589,10.589,0,0,0,2.014-3.743,11.963,11.963,0,0,0,2.243,3.619.526.526,0,0,0,.826-.083,5.8,5.8,0,0,0,.087-4.2c2.059,2.027,4.371,3.825,7.123,4.087a.478.478,0,0,0,.472-.578,4.1,4.1,0,0,0-1-2.05c1.5,1.2,3.087,2.316,4.587,3.408,1.569,1.147,3.325,2.426,5.357,2.064a.511.511,0,0,0,.381-.605,6.61,6.61,0,0,0-1.454-2.848,8.683,8.683,0,0,0,4.454,2.5.512.512,0,0,0,.523-.5,6.05,6.05,0,0,0-.252-1.541,7.924,7.924,0,0,0,3.027,2.61c1.472.541,2.137-.807,2.027-2.087-.023-.239-.06-.477-.1-.711.078.124.156.239.225.349.917,1.431,2.064,3.582,3.7,4.311,1.715.775,1.908-1.477,1.61-2.623.064.041.124.092.188.138a12.828,12.828,0,0,0,3.128,1.647,18.708,18.708,0,0,0,1.014,5.6c.56,1.353,1.532,2.192,3,1.573a3.181,3.181,0,0,0,1.578-1.885c4.454-3.894,4.252-10.384,2.027-15.507C-120.548,50.805-120.63,50.654-120.7,50.493Z" transform="translate(189.353 -12.487)"/><g transform="translate(39.011 57.322)"><path class="y" d="M-179.26,52.433c.7,1.559,1.881,2.587,2.637,2.293s.793-1.793.087-3.353-1.885-2.587-2.633-2.3S-179.966,50.874-179.26,52.433Z" transform="translate(179.764 -49.027)"/><path class="z" d="M-179.262,50.19c.252.454.637.734.858.633s.188-.564-.064-1.018-.637-.734-.858-.628S-179.519,49.736-179.262,50.19Z" transform="translate(180.794 -48.573)"/></g><g transform="translate(17.956 58.855)"><path class="y" d="M-183.939,52.46c.573,1.422,1.523,2.362,2.124,2.1s.628-1.628.05-3.05-1.523-2.367-2.124-2.105S-184.512,51.033-183.939,52.46Z" transform="translate(184.355 -49.362)"/><path class="z" d="M-183.951,50.42c.206.413.514.674.693.578s.151-.5-.06-.922-.514-.674-.693-.578S-184.157,50.007-183.951,50.42Z" transform="translate(185.178 -48.945)"/></g><path class="k" d="M-163,49.952a3.914,3.914,0,0,0-3.559-2.417,6.512,6.512,0,0,0-4.252,2.44,19.05,19.05,0,0,0-1.059,1.637l-.023.023c-1.39,2.275-4.321,8.54.055,9.581,1.413.339,3.055-1.073,4.077-1.844a14.146,14.146,0,0,0,4-4.972A6.77,6.77,0,0,0-163,49.952Z" transform="translate(238.928 2.924)"/><path class="n" d="M-168.244,48.4c-3.656,1.33-5.779,5.875-5.724,9.746a3.022,3.022,0,0,0,1.5.793c1.413.339,3.055-1.073,4.077-1.844a14.147,14.147,0,0,0,4-4.972c.124-.243.229-.5.33-.748C-164.593,49.253-165.864,47.528-168.244,48.4Z" transform="translate(239.558 5.206)"/><path class="n" d="M-168.321,48.257c-.9-.44-2.234.638-2.871,1.128a6.449,6.449,0,0,0-2.137,6.65c.041.124.229-.078.216-.161a8.574,8.574,0,0,1-.028-1.94,1.178,1.178,0,0,0,.367.252,1.722,1.722,0,0,0,1.642-.381,5.807,5.807,0,0,0,1.22-1.174,1.947,1.947,0,0,0,.583-1.078c0-.1-.151.018-.156.078-.069.583-1.069,1.353-1.5,1.66a1.982,1.982,0,0,1-1.293.463c-.275-.028-.541-.3-.761-.491a6.643,6.643,0,0,1,1.2-2.77c1.078-1.44,4.206-3.032,4.238-.115,0,.092.138-.018.147-.078C-167.34,49.339-167.358,48.72-168.321,48.257Z" transform="translate(240.919 5.16)"/><path class="s" d="M-159.966,56.042c-1.922-2.3-5.059-3.087-7.916-3.344a5.6,5.6,0,0,0,1.234-.449c.087-.05.271-.307.092-.362a8.4,8.4,0,0,0-3.866.289,5.391,5.391,0,0,0-1.651.628,3.369,3.369,0,0,0,.757-.56c.064-.069.142-.33-.037-.3a12.038,12.038,0,0,0-3.527,1.165,18.111,18.111,0,0,0-1.981,1.188c-.087.055-1.023.55-1.426.858a9.013,9.013,0,0,0-4.009,2.367c-.069.073-.128.284.037.275a4.6,4.6,0,0,0,1.234-.33,4.242,4.242,0,0,0-.683.949,3.663,3.663,0,0,0-.7,2.247c.018.078.073.1.151.078a1.306,1.306,0,0,0,.665-.6l-.023.083a2.152,2.152,0,0,0,.119,1.009c.261.926,1.381,2.834,2.431,3.055.128.028.238-.106.28-.206l.037-.105a10.368,10.368,0,0,0,1.715-3.348,18.819,18.819,0,0,0,.839-2.468,7.62,7.62,0,0,0,.064-1.22,23.511,23.511,0,0,0,3.252.243c1.326.105,2.66.142,3.99.161a26.74,26.74,0,0,0,8.747-.922C-160.007,56.372-159.86,56.166-159.966,56.042Z" transform="translate(209.168 18.029)"/><path class="s" d="M-179.033,48.047c-1.436,1.046-2.99,1.908-4.4,2.99-.541.413-1.7,1.674-1.5,2.449l0,0a1.294,1.294,0,0,0-.041.261c0,.275.362-.014.413-.1,1.518-2.413,5.935-.748,5.935-5.394C-178.615,48.011-178.817,47.887-179.033,48.047Z" transform="translate(200.128 4.521)"/><path class="s" d="M-168.508,49.989l-.032-.037h0c-2.5-3.642-8.361-1.835-12.035-2.532a.65.65,0,0,0-.587.372c.083.3.174.587.28.871a2.548,2.548,0,0,0,2.417,1.16c1.812-.032,3.628-.041,5.44-.064.527-.009,1.225-.046,1.922-.009l.161.032a.275.275,0,0,0,.16-.009,3.149,3.149,0,0,1,1.867.647C-168.747,50.576-168.394,50.163-168.508,49.989Z" transform="translate(213.743 2.511)"/><path class="j" d="M-176.4,57.374c-.7.514-1.4,1.023-2.119,1.5a8.568,8.568,0,0,1-1.674.849c-1.16.486-1.321-1.913-1.39-2.39a21.133,21.133,0,0,1,.271-6.88c.028-.161-.193-.046-.22.05a18.462,18.462,0,0,0-.252,9.389c.661,2.243,4.637-1.261,5.541-2C-176,57.7-176.008,57.09-176.4,57.374Z" transform="translate(209.735 13.137)"/><path class="j" d="M-171.471,54.612a9.12,9.12,0,0,0-3.766-.771,9.389,9.389,0,0,0-2.426.206,10.512,10.512,0,0,0-1.72.573,8.171,8.171,0,0,1-.858.482.144.144,0,0,0-.105.11l0,.092c0,.073.046.133.128.1a10.65,10.65,0,0,1,4.16-.871,27.688,27.688,0,0,1,4.151.729C-171.678,55.3-171.178,54.773-171.471,54.612Z" transform="translate(216.669 25.545)"/></g></g><path class="aa" d="M-191.834,116.839l6.132-3.362-1.326-.972,16.594-15.649,7.238,7.054a.484.484,0,0,0,.665.009L-148.794,91.6a.487.487,0,0,0,.041-.688.5.5,0,0,0-.385-.165.525.525,0,0,0-.307.128l-13.4,12.012-7.247-7.054a.486.486,0,0,0-.674,0l-17.062,16.08-2.036-1.5Z" transform="translate(191.834 157.938)"/><path class="n" d="M-180.351,56.389a6.231,6.231,0,0,1,5.265.67S-177.746,56.609-180.351,56.389Z" transform="translate(233.018 33.661)"/><path class="n" d="M-172.883,55.819a6.224,6.224,0,0,0-4.862,2.133S-175.319,56.768-172.883,55.819Z" transform="translate(242.365 32.653)"/></g></g></svg>