<svg width="170" height="36" viewBox="0 0 170 36" fill="none" xmlns="http://www.w3.org/2000/svg">
<g id="airtable-logo-svg-150px" clip-path="url(#clip0_73_2769)">
<path id="Vector" d="M67.7977 18.8567L64.8805 11.0919C64.8536 11.0219 64.806 10.9617 64.7442 10.9193C64.6824 10.8769 64.6091 10.8542 64.5342 10.8542C64.4592 10.8542 64.3859 10.8769 64.3241 10.9193C64.2623 10.9617 64.2149 11.0219 64.1878 11.0919L61.2706 18.8579C61.2503 18.913 61.2439 18.9722 61.2517 19.0303C61.2597 19.0885 61.2816 19.1439 61.3158 19.1916C61.3499 19.2394 61.3952 19.278 61.4477 19.3043C61.5002 19.3305 61.5583 19.3434 61.6169 19.342H67.4762C67.5635 19.343 67.6478 19.3109 67.7123 19.2522C67.7768 19.1934 67.8166 19.1124 67.8238 19.0255C67.8293 18.9684 67.8203 18.9108 67.7977 18.8579V18.8567ZM69.1571 23.2139H59.9113C59.8359 23.2144 59.7623 23.2379 59.7005 23.2811C59.6387 23.3243 59.5914 23.3853 59.5649 23.456L57.7351 28.2998C57.7088 28.3703 57.6618 28.4312 57.6002 28.4744C57.5386 28.5177 57.4654 28.5412 57.39 28.5419H53.3816C53.3204 28.5428 53.26 28.5284 53.2057 28.5001C53.1515 28.4716 53.1052 28.4303 53.0709 28.3795C53.0366 28.3288 53.0155 28.2703 53.0096 28.2093C53.0036 28.1484 53.0128 28.0869 53.0365 28.0305L62.2575 5.39641C62.285 5.32792 62.3335 5.26982 62.3958 5.23039C62.4582 5.19095 62.5314 5.17215 62.6051 5.17668H66.436C66.5087 5.17713 66.5798 5.19796 66.6413 5.2368C66.7027 5.27565 66.752 5.33094 66.7835 5.39641L76.0033 28.0305C76.027 28.0871 76.0363 28.1488 76.0302 28.2098C76.0241 28.2709 76.0029 28.3295 75.9686 28.3804C75.9342 28.4312 75.8878 28.4728 75.8333 28.5012C75.779 28.5296 75.7184 28.544 75.6569 28.5431H71.6547C71.5791 28.5425 71.5055 28.5189 71.4437 28.4755C71.3819 28.432 71.3347 28.3708 71.3084 28.2998L69.4786 23.456C69.4612 23.3846 69.4197 23.3214 69.3611 23.2771C69.3026 23.2328 69.2306 23.2101 69.1571 23.2127V23.2139ZM77.9088 13.1116H81.3462C81.4432 13.1134 81.5358 13.1525 81.6049 13.2207C81.674 13.2887 81.7142 13.3808 81.7173 13.4778V28.1794C81.7142 28.2762 81.6739 28.368 81.6047 28.4358C81.5356 28.5034 81.443 28.5419 81.3462 28.5431H77.91C77.8131 28.5423 77.7202 28.5039 77.6508 28.4361C77.5814 28.3684 77.5408 28.2764 77.5376 28.1794V13.4778C77.5371 13.429 77.5464 13.3807 77.565 13.3356C77.5837 13.2906 77.6112 13.2497 77.646 13.2155C77.6807 13.1813 77.7221 13.1545 77.7674 13.1366C77.8128 13.1188 77.8614 13.1102 77.91 13.1116H77.9088ZM94.228 16.6892C94.2251 16.7864 94.185 16.8788 94.1159 16.9472C94.0468 17.0156 93.9541 17.0548 93.8568 17.0567H93.7575C92.0518 17.0567 90.8154 17.444 90.0246 18.2484C89.2339 19.0528 88.8379 20.3662 88.8379 22.2133V28.1533C88.8348 28.2502 88.7947 28.342 88.7259 28.4102C88.6571 28.4782 88.5648 28.5174 88.468 28.5196H85.079C84.9823 28.5174 84.8899 28.4782 84.8212 28.4102C84.7524 28.342 84.7123 28.2502 84.7091 28.1533V13.4778C84.7123 13.3808 84.7525 13.2887 84.8216 13.2207C84.8907 13.1525 84.9833 13.1134 85.0802 13.1116H88.4419C88.5392 13.1132 88.6321 13.152 88.7015 13.2202C88.7707 13.2883 88.8112 13.3806 88.8143 13.4778V16.3739H88.8875C89.2309 15.2738 89.9039 14.3058 90.8154 13.6007C91.7683 12.9286 92.915 12.5867 94.0802 12.6274H94.2528V16.6905H94.228V16.6892ZM103.598 16.5452C103.502 16.5468 103.409 16.5852 103.341 16.6527C103.272 16.7201 103.231 16.8114 103.228 16.9077V23.0178C103.182 23.4957 103.314 23.9724 103.598 24.3585C103.846 24.6241 104.266 24.7458 104.884 24.7458H105.23C105.327 24.748 105.419 24.7871 105.488 24.8553C105.557 24.9234 105.597 25.0153 105.6 25.112V28.1782C105.597 28.2748 105.557 28.3664 105.488 28.434C105.419 28.5018 105.327 28.5404 105.23 28.5419H103.773C102.263 28.5419 101.103 28.1521 100.287 27.3973C99.4703 26.6202 99.0755 25.4993 99.0755 23.9674V16.9077C99.0721 16.811 99.0315 16.7194 98.9621 16.6518C98.8927 16.5843 98.8 16.5461 98.7031 16.5452H96.5531C96.4561 16.5431 96.3636 16.5037 96.2948 16.4353C96.226 16.3669 96.186 16.2747 96.1831 16.1778V13.4778C96.186 13.3809 96.2261 13.2888 96.2948 13.2207C96.3637 13.1525 96.4562 13.1134 96.5531 13.1116H98.7044C98.8012 13.1103 98.8938 13.0718 98.9629 13.0042C99.0321 12.9364 99.0724 12.8447 99.0755 12.7478V7.29448C99.0788 7.19775 99.1191 7.10596 99.1883 7.03822C99.2574 6.97046 99.35 6.93198 99.4467 6.93075H102.883C102.98 6.93198 103.072 6.97046 103.141 7.03822C103.211 7.10596 103.251 7.19775 103.254 7.29448V12.7478C103.257 12.8447 103.298 12.9364 103.367 13.0042C103.436 13.0718 103.528 13.1103 103.625 13.1116H106.097C106.194 13.1134 106.286 13.1525 106.355 13.2207C106.425 13.2887 106.465 13.3808 106.468 13.4778V16.1778C106.465 16.275 106.425 16.3673 106.356 16.4357C106.287 16.5041 106.194 16.5433 106.097 16.5452H103.598ZM119.298 23.9438C119.693 23.5256 120 23.0319 120.199 22.4922C120.399 21.9524 120.487 21.3779 120.46 20.8031C120.482 20.229 120.39 19.6561 120.191 19.1172C119.992 18.5783 119.688 18.084 119.298 17.6625C118.461 16.8961 117.367 16.4711 116.232 16.4711C115.097 16.4711 114.003 16.8961 113.166 17.6625C112.771 18.0807 112.464 18.5745 112.265 19.1141C112.065 19.6539 111.977 20.2284 112.005 20.8031C111.983 21.3773 112.074 21.9502 112.273 22.4891C112.472 23.0279 112.776 23.5223 113.166 23.9438C113.568 24.3433 114.047 24.6554 114.575 24.8605C115.103 25.0655 115.667 25.1593 116.233 25.1356C116.799 25.1671 117.366 25.0771 117.895 24.8716C118.424 24.6661 118.902 24.3498 119.299 23.9438H119.298ZM111.385 28.0578C110.224 27.3996 109.28 26.4179 108.666 25.2324C108.015 23.8465 107.677 22.3339 107.677 20.8025C107.677 19.2712 108.015 17.7587 108.666 16.3727C109.287 15.1929 110.23 14.2135 111.385 13.5485C112.546 12.8952 113.859 12.5595 115.191 12.5753C116.28 12.5486 117.359 12.7917 118.332 13.2829C119.191 13.7381 119.91 14.4203 120.409 15.2554H120.483V13.4505C120.487 13.354 120.527 13.2626 120.596 13.195C120.664 13.1273 120.757 13.0886 120.853 13.0867H124.241C124.337 13.0883 124.43 13.1268 124.499 13.1946C124.568 13.2623 124.608 13.3539 124.612 13.4505V28.1509C124.609 28.2483 124.569 28.3408 124.499 28.4093C124.43 28.4777 124.337 28.5168 124.24 28.5183H120.856C120.758 28.5165 120.666 28.4772 120.596 28.4088C120.527 28.3404 120.487 28.2481 120.484 28.1509V26.3509H120.41C119.911 27.1868 119.192 27.8696 118.332 28.3247C117.359 28.814 116.28 29.0566 115.191 29.031C113.859 29.0469 112.546 28.7112 111.385 28.0578ZM138.73 23.9438C139.125 23.5256 139.432 23.0318 139.632 22.492C139.831 21.9524 139.92 21.3779 139.892 20.8031C139.915 20.229 139.823 19.6561 139.624 19.1172C139.424 18.5783 139.12 18.084 138.73 17.6625C137.894 16.8958 136.799 16.4705 135.664 16.4705C134.529 16.4705 133.435 16.8958 132.598 17.6625C132.203 18.0809 131.896 18.5747 131.697 19.1144C131.498 19.6541 131.409 20.2285 131.437 20.8031C131.415 21.3773 131.507 21.9502 131.705 22.4891C131.905 23.0279 132.208 23.5223 132.599 23.9438C133 24.3433 133.479 24.6554 134.008 24.8605C134.536 25.0655 135.099 25.1593 135.665 25.1356C136.231 25.167 136.799 25.0768 137.328 24.8714C137.856 24.6658 138.334 24.3496 138.732 23.9438H138.73ZM133.588 28.3234C132.728 27.8681 132.009 27.1853 131.51 26.3496H131.436V28.1521C131.432 28.2489 131.392 28.3408 131.324 28.4089C131.255 28.477 131.163 28.5162 131.066 28.5183H127.629C127.532 28.5162 127.44 28.477 127.37 28.4089C127.302 28.3408 127.261 28.2489 127.259 28.1521V5.51682C127.261 5.42018 127.302 5.32844 127.37 5.26053C127.44 5.19261 127.532 5.15372 127.629 5.15186H131.066C131.163 5.15338 131.255 5.19198 131.324 5.25966C131.394 5.32734 131.433 5.41895 131.437 5.51558V15.2778H131.512C132.011 14.4431 132.729 13.7605 133.588 13.304C134.562 12.8149 135.639 12.5723 136.728 12.5976C138.06 12.5816 139.373 12.9186 140.534 13.5746C141.695 14.2315 142.639 15.212 143.253 16.3962C143.948 17.7666 144.288 19.2895 144.243 20.8255C144.274 22.3605 143.935 23.8801 143.254 25.256C142.633 26.4365 141.69 27.416 140.535 28.0801C139.373 28.7336 138.06 29.0694 136.728 29.0533C135.638 29.0623 134.56 28.8113 133.587 28.3209L133.588 28.3234ZM150.029 28.5208H146.594C146.498 28.5193 146.404 28.4802 146.335 28.4117C146.265 28.3432 146.226 28.2507 146.223 28.1533V5.51806C146.227 5.421 146.267 5.3289 146.336 5.26092C146.406 5.19295 146.499 5.15433 146.596 5.1531H150.031C150.127 5.15524 150.219 5.19406 150.288 5.26164C150.356 5.32924 150.397 5.4205 150.4 5.51682V28.1521C150.402 28.2235 150.382 28.2935 150.343 28.3535C150.305 28.4134 150.249 28.4605 150.183 28.4885C150.135 28.5095 150.083 28.5197 150.031 28.5183V28.5208H150.029ZM158.114 16.6669C157.516 17.1444 157.105 17.8166 156.952 18.5662C156.941 18.6203 156.944 18.6762 156.957 18.7295C156.971 18.7829 156.997 18.8326 157.033 18.8747C157.068 18.9167 157.113 18.9503 157.164 18.9727C157.213 18.9952 157.269 19.006 157.324 19.0044H163.851C163.903 19.0046 163.955 18.9936 164.004 18.9722C164.052 18.9509 164.094 18.9196 164.129 18.8804C164.165 18.8413 164.191 18.7951 164.207 18.7451C164.223 18.6949 164.228 18.642 164.222 18.5898C164.123 17.8622 163.761 17.1957 163.207 16.7153C162.492 16.1467 161.598 15.8525 160.685 15.886C159.767 15.8612 158.864 16.1343 158.114 16.6656L158.113 16.6669H158.114ZM166.471 14.7688C167.806 16.2026 168.474 18.2298 168.472 20.8516V21.2922C168.469 21.3889 168.429 21.4806 168.36 21.5482C168.29 21.6159 168.198 21.6545 168.101 21.656H157.201C157.146 21.6571 157.093 21.6696 157.044 21.6928C156.995 21.7161 156.951 21.7494 156.916 21.7907C156.88 21.832 156.854 21.8803 156.84 21.9324C156.825 21.9846 156.821 22.0392 156.828 22.0929C156.97 23.0046 157.435 23.8346 158.14 24.4305C159.006 25.1074 160.084 25.4522 161.182 25.4025C162.82 25.3796 164.388 24.726 165.558 23.5776C165.596 23.5424 165.642 23.5161 165.692 23.5005C165.743 23.485 165.795 23.4807 165.847 23.4877C165.899 23.4948 165.949 23.5132 165.992 23.5416C166.037 23.5701 166.074 23.6078 166.101 23.6521L167.757 26.012C167.805 26.0873 167.826 26.1761 167.816 26.2645C167.807 26.3527 167.769 26.4357 167.708 26.4998C166.886 27.2005 165.981 27.7974 165.014 28.2775C163.809 28.8149 162.5 29.0807 161.181 29.0558C159.635 29.091 158.104 28.7389 156.73 28.0317C155.491 27.3808 154.468 26.3831 153.788 25.1604C153.068 23.8492 152.702 22.3732 152.726 20.8776C152.698 19.3795 153.047 17.8986 153.74 16.57C154.389 15.3514 155.376 14.346 156.583 13.6751C157.893 12.9602 159.367 12.5991 160.86 12.6274C163.282 12.5989 165.137 13.33 166.471 14.7676V14.7688ZM82.1617 7.66317C82.1688 8.16194 82.0279 8.65161 81.7567 9.07028C81.4855 9.48895 81.0963 9.8178 80.6382 10.0153C80.1801 10.2128 79.6738 10.27 79.1832 10.1798C78.6926 10.0895 78.2397 9.85583 77.882 9.50825C77.5242 9.16069 77.2774 8.71484 77.173 8.22708C77.0685 7.73931 77.1111 7.23153 77.2952 6.76792C77.4793 6.3043 77.7967 5.9057 78.2073 5.62246C78.618 5.33923 79.1034 5.18411 79.602 5.17668H79.6144C80.2799 5.1736 80.9199 5.43217 81.3964 5.89661C81.8729 6.36106 82.1478 6.99417 82.1617 7.65944V7.66192V7.66317Z" fill="#9E9E9E"/>
<path id="Vector_2" d="M20.2359 0.441589L4.63937 6.89514C3.77229 7.25432 3.78103 8.48626 4.65403 8.83219L20.3156 15.0429C21.6917 15.5886 23.2241 15.5886 24.6002 15.0429L40.262 8.83219C41.1345 8.48626 41.1437 7.25432 40.2762 6.89538L24.68 0.441589C23.2572 -0.147196 21.6588 -0.147196 20.2359 0.441589Z" fill="#9E9E9E"/>
<path id="Vector_3" d="M23.8477 18.4339V33.9494C23.8477 34.687 24.5917 35.1927 25.2777 34.9207L42.7295 28.1467C42.9242 28.0696 43.0911 27.9358 43.2087 27.7625C43.3264 27.5893 43.3892 27.3848 43.3892 27.1755V11.6602C43.3892 10.9222 42.6451 10.4169 41.9591 10.6888L24.5073 17.4628C24.3127 17.54 24.1458 17.6738 24.0282 17.8471C23.9106 18.0203 23.8477 18.2247 23.8477 18.4342" fill="#9E9E9E"/>
<path id="Vector_4" d="M19.7717 19.2343L14.5924 21.7351L14.0665 21.9893L3.13329 27.2279C2.44048 27.5622 1.55566 27.0572 1.55566 26.2873V11.725C1.55566 11.4465 1.69848 11.206 1.89001 11.0251C1.96858 10.9469 2.05772 10.88 2.15484 10.8265C2.41589 10.6697 2.78853 10.6279 3.10538 10.7532L19.6847 17.3223C20.5274 17.6566 20.5936 18.8376 19.7717 19.2346" fill="#9E9E9E"/>
<path id="Vector_5" d="M19.7722 19.2343L14.5929 21.7351L1.89062 11.0249C1.96922 10.9467 2.05836 10.8799 2.15546 10.8265C2.4165 10.6697 2.78916 10.6279 3.10601 10.7532L19.6853 17.3223C20.528 17.6566 20.5941 18.8376 19.7722 19.2346" fill="#9E9E9E"/>
</g>
<defs>
<clipPath id="clip0_73_2769">
<rect width="168.828" height="36" fill="white" transform="translate(0.585938)"/>
</clipPath>
</defs>
</svg>
