<svg width="27" height="27" viewBox="0 0 27 27" fill="none" xmlns="http://www.w3.org/2000/svg">
<g id="vuesax/linear/bank">
<g id="bank">
<path id="Vector" d="M14.0993 3.27755L23.7243 7.12752C24.0986 7.27724 24.3981 7.7264 24.3981 8.12209V11.6727C24.3981 12.2609 23.9168 12.7421 23.3286 12.7421H4.07862C3.49042 12.7421 3.00917 12.2609 3.00917 11.6727V8.12209C3.00917 7.7264 3.30862 7.27724 3.68293 7.12752L13.3079 3.27755C13.5218 3.19199 13.8854 3.19199 14.0993 3.27755Z" stroke="#292D32" stroke-width="2" stroke-miterlimit="10" stroke-linecap="round" stroke-linejoin="round"/>
<path id="Vector_2" d="M24.3981 24.506H3.00917V21.2977C3.00917 20.7095 3.49042 20.2283 4.07862 20.2283H23.3286C23.9168 20.2283 24.3981 20.7095 24.3981 21.2977V24.506Z" stroke="#292D32" stroke-width="2" stroke-miterlimit="10" stroke-linecap="round" stroke-linejoin="round"/>
<path id="Vector_3" d="M5.14806 20.2281V12.7419" stroke="#292D32" stroke-width="2" stroke-miterlimit="10" stroke-linecap="round" stroke-linejoin="round"/>
<path id="Vector_4" d="M9.42584 20.2281V12.7419" stroke="#292D32" stroke-width="2" stroke-miterlimit="10" stroke-linecap="round" stroke-linejoin="round"/>
<path id="Vector_5" d="M13.7036 20.2281V12.7419" stroke="#292D32" stroke-width="2" stroke-miterlimit="10" stroke-linecap="round" stroke-linejoin="round"/>
<path id="Vector_6" d="M17.9814 20.2281V12.7419" stroke="#292D32" stroke-width="2" stroke-miterlimit="10" stroke-linecap="round" stroke-linejoin="round"/>
<path id="Vector_7" d="M22.2592 20.2281V12.7419" stroke="#292D32" stroke-width="2" stroke-miterlimit="10" stroke-linecap="round" stroke-linejoin="round"/>
<path id="Vector_8" d="M1.93973 24.5059H25.4675" stroke="#292D32" stroke-width="2" stroke-miterlimit="10" stroke-linecap="round" stroke-linejoin="round"/>
<path id="Vector_9" d="M13.7036 10.0682C14.5896 10.0682 15.3078 9.34999 15.3078 8.46403C15.3078 7.57807 14.5896 6.85986 13.7036 6.85986C12.8177 6.85986 12.0995 7.57807 12.0995 8.46403C12.0995 9.34999 12.8177 10.0682 13.7036 10.0682Z" stroke="#292D32" stroke-width="2" stroke-miterlimit="10" stroke-linecap="round" stroke-linejoin="round"/>
</g>
</g>
</svg>
