<svg width="186" height="36" viewBox="0 0 186 36" fill="none" xmlns="http://www.w3.org/2000/svg">
<g id="discord-logo-svg-150px">
<path id="Vector" d="M39.0023 2.92935C36.0032 1.55768 32.8181 0.55797 29.4935 0C29.075 0.72072 28.61 1.69716 28.2845 2.46438C24.7484 1.9529 21.2378 1.9529 17.7504 2.46438C17.4249 1.69716 16.9367 0.72072 16.5414 0C13.1936 0.55797 10.0085 1.55768 7.03035 2.92935C1.0089 11.8104 -0.618525 20.4822 0.195186 29.0378C4.19398 31.9438 8.05334 33.7108 11.8452 34.8733C12.7752 33.6178 13.6122 32.2693 14.3329 30.8512C12.9612 30.3397 11.6592 29.712 10.4038 28.968C10.7293 28.7357 11.0548 28.4799 11.357 28.2241C18.9362 31.6882 27.1454 31.6882 34.6314 28.2241C34.9569 28.4799 35.2592 28.7357 35.5847 28.968C34.3292 29.712 33.0273 30.3397 31.6556 30.8512C32.3763 32.2693 33.2133 33.6178 34.1432 34.8733C37.9328 33.7108 41.8154 31.9438 45.7932 29.0378C46.7928 19.1339 44.21 10.5318 39.0023 2.92935ZM15.3791 23.7603C13.1006 23.7603 11.2407 21.6912 11.2407 19.1571C11.2407 16.623 13.0541 14.5538 15.3791 14.5538C17.6807 14.5538 19.5638 16.623 19.5173 19.1571C19.5173 21.6912 17.6807 23.7603 15.3791 23.7603ZM30.656 23.7603C28.3775 23.7603 26.5152 21.6912 26.5152 19.1571C26.5152 16.623 28.331 14.5538 30.656 14.5538C32.9576 14.5538 34.8407 16.623 34.7942 19.1571C34.7942 21.6912 32.9808 23.7603 30.656 23.7603Z" fill="#9E9E9E"/>
<path id="Vector_2" d="M61.9043 7.29932H71.7875C74.1589 7.29932 76.1815 7.67124 77.8322 8.41524C79.4828 9.15924 80.715 10.1822 81.5288 11.5073C82.3424 12.8326 82.7609 14.3437 82.7609 16.0643C82.7609 17.7381 82.3426 19.2494 81.4823 20.621C80.6221 21.9694 79.3202 23.062 77.5764 23.8526C75.8328 24.643 73.6706 25.0383 71.09 25.0383H61.9043V7.29932ZM70.9738 20.528C72.5779 20.528 73.8101 20.1327 74.6703 19.3191C75.5306 18.5286 75.9723 17.4126 75.9723 16.041C75.9723 14.7622 75.5771 13.7392 74.8099 12.9721C74.0426 12.2048 72.8802 11.8096 71.3225 11.8096H68.2304V20.528H70.9738Z" fill="#9E9E9E"/>
<path id="Vector_3" d="M98.1546 25.0159C96.7829 24.6672 95.5508 24.1557 94.458 23.4582V19.2501C95.295 19.9011 96.3876 20.4126 97.7826 20.8311C99.1775 21.2496 100.526 21.4588 101.828 21.4588C102.432 21.4588 102.897 21.3891 103.2 21.2263C103.502 21.0636 103.665 20.8776 103.665 20.6451C103.665 20.3893 103.572 20.1801 103.409 20.0173C103.246 19.8546 102.921 19.7151 102.432 19.5756L99.3867 18.9015C97.6431 18.5062 96.4109 17.925 95.6669 17.2275C94.923 16.53 94.5743 15.5769 94.5743 14.4143C94.5743 13.4378 94.8998 12.5777 95.5274 11.857C96.1784 11.1362 97.0851 10.5782 98.2709 10.183C99.4565 9.78786 100.828 9.57861 102.432 9.57861C103.851 9.57861 105.152 9.71811 106.338 10.0436C107.524 10.3457 108.5 10.741 109.268 11.206V15.1816C108.477 14.7166 107.547 14.3446 106.524 14.0656C105.478 13.7866 104.409 13.6471 103.316 13.6471C101.735 13.6471 100.944 13.9261 100.944 14.4608C100.944 14.7166 101.061 14.9026 101.316 15.0421C101.572 15.1816 102.014 15.2979 102.665 15.4374L105.199 15.9024C106.85 16.1812 108.082 16.6927 108.896 17.4135C109.709 18.1342 110.105 19.1803 110.105 20.5986C110.105 22.1331 109.43 23.3652 108.082 24.2487C106.733 25.1554 104.827 25.597 102.363 25.597C100.921 25.5505 99.5262 25.3645 98.1546 25.0159Z" fill="#9E9E9E"/>
<path id="Vector_4" d="M116.384 24.482C114.942 23.7612 113.826 22.8081 113.105 21.5991C112.361 20.3901 112.013 19.0184 112.013 17.4839C112.013 15.9728 112.385 14.6011 113.152 13.4155C113.919 12.2065 115.035 11.2765 116.5 10.5792C117.964 9.9049 119.731 9.55615 121.777 9.55615C124.311 9.55615 126.404 10.0909 128.078 11.1603V15.7868C127.496 15.3915 126.799 15.0428 126.009 14.8104C125.218 14.5546 124.381 14.4384 123.498 14.4384C121.917 14.4384 120.708 14.7174 119.801 15.2985C118.918 15.8798 118.476 16.6238 118.476 17.5536C118.476 18.4604 118.894 19.2044 119.778 19.7856C120.638 20.3667 121.893 20.669 123.521 20.669C124.358 20.669 125.195 20.5529 126.009 20.2971C126.822 20.0414 127.543 19.7624 128.124 19.3904V23.8775C126.264 24.9935 124.102 25.5513 121.661 25.5513C119.592 25.5513 117.848 25.1795 116.384 24.482Z" fill="#9E9E9E"/>
<path id="Vector_5" d="M134.706 24.482C133.241 23.7612 132.125 22.808 131.358 21.5757C130.591 20.3435 130.195 18.9719 130.195 17.4374C130.195 15.9263 130.591 14.5546 131.358 13.369C132.125 12.1833 133.241 11.2533 134.682 10.5792C136.124 9.9049 137.867 9.55615 139.869 9.55615C141.869 9.55615 143.612 9.88165 145.054 10.5792C146.495 11.2533 147.611 12.1833 148.378 13.369C149.145 14.5546 149.517 15.903 149.517 17.4374C149.517 18.9486 149.145 20.3435 148.378 21.5757C147.611 22.808 146.518 23.7845 145.054 24.482C143.589 25.1795 141.869 25.5513 139.869 25.5513C137.891 25.5513 136.17 25.1795 134.706 24.482ZM142.403 19.9949C143.008 19.3905 143.333 18.5534 143.333 17.5536C143.333 16.5308 143.031 15.7403 142.403 15.1358C141.776 14.5314 140.939 14.2291 139.892 14.2291C138.8 14.2291 137.96 14.5314 137.333 15.1358C136.728 15.7403 136.403 16.5308 136.403 17.5536C136.403 18.5766 136.705 19.3905 137.333 19.9949C137.96 20.6226 138.8 20.9247 139.892 20.9247C140.939 20.9015 141.799 20.5994 142.403 19.9949Z" fill="#9E9E9E"/>
<path id="Vector_6" d="M165.072 10.4852V15.9489C164.421 15.5304 163.584 15.3211 162.561 15.3211C161.212 15.3211 160.165 15.7396 159.445 16.5532C158.724 17.367 158.352 18.6457 158.352 20.3661V25.0159H152.145V10.2295H158.236V14.9491C158.562 13.2286 159.12 11.95 159.864 11.1362C160.608 10.3225 161.584 9.88086 162.769 9.88086C163.653 9.88086 164.421 10.0901 165.072 10.4852Z" fill="#9E9E9E"/>
<path id="Vector_7" d="M186 6.78857V25.0389H179.793V21.7143C179.258 22.9698 178.467 23.923 177.398 24.5739C176.327 25.2249 175.001 25.5504 173.42 25.5504C172.025 25.5504 170.793 25.2016 169.746 24.5274C168.701 23.8533 167.888 22.9 167.33 21.7143C166.772 20.5054 166.493 19.1569 166.493 17.6691C166.469 16.1113 166.772 14.7165 167.399 13.4842C168.003 12.2521 168.887 11.2989 170.003 10.6014C171.119 9.90388 172.397 9.55513 173.838 9.55513C176.792 9.55513 178.77 10.8339 179.793 13.4145V6.78857H186ZM178.863 19.8777C179.49 19.2732 179.816 18.4594 179.816 17.4831C179.816 16.5298 179.514 15.7626 178.886 15.1815C178.259 14.6002 177.422 14.298 176.373 14.298C175.326 14.298 174.489 14.6002 173.862 15.2047C173.234 15.8091 172.932 16.5763 172.932 17.5528C172.932 18.5292 173.234 19.2964 173.862 19.9009C174.489 20.5054 175.304 20.8077 176.349 20.8077C177.398 20.8077 178.235 20.5054 178.863 19.8777Z" fill="#9E9E9E"/>
<path id="Vector_8" d="M88.4826 11.1135C90.2656 11.1135 91.7142 9.81222 91.7142 8.20737C91.7142 6.60228 90.2656 5.30127 88.4826 5.30127C86.697 5.30127 85.251 6.60228 85.251 8.20737C85.251 9.81222 86.697 11.1135 88.4826 11.1135Z" fill="#9E9E9E"/>
<path id="Vector_9" d="M91.7142 13.1113C89.7379 13.9714 87.2736 13.9947 85.251 13.1113V25.038H91.7142V13.1113Z" fill="#9E9E9E"/>
</g>
</svg>
