<svg width="190" height="36" viewBox="0 0 190 36" fill="none" xmlns="http://www.w3.org/2000/svg">
<g id="dropbox-logo-svg-150px">
<path id="Vector" fill-rule="evenodd" clip-rule="evenodd" d="M169.306 27.6419L176.277 18.2812L169.847 9.43652H175.354L179.077 14.9549L182.834 9.43652H188.31L181.784 18.2495L188.659 27.6419H183.248L179.014 21.7023L174.908 27.6419H169.306Z" fill="#9E9E9E"/>
<path id="Vector_2" fill-rule="evenodd" clip-rule="evenodd" d="M151.778 18.9028C151.778 24.9114 155.066 28.1056 160.891 28.1056C166.341 28.1056 170.036 24.9114 170.036 18.9028V18.3968C170.036 12.3249 166.278 8.97266 160.891 8.97266C155.63 8.97266 151.778 12.2616 151.778 18.3968V18.9028ZM165.29 18.9041C165.29 22.2374 163.625 24.0471 160.891 24.0471C158.19 24.0471 156.525 22.2057 156.525 18.9041V18.4597C156.525 14.9042 158.284 13.0312 160.922 13.0312C163.593 13.0312 165.29 15.0312 165.29 18.4597V18.9041Z" fill="#9E9E9E"/>
<path id="Vector_3" fill-rule="evenodd" clip-rule="evenodd" d="M135.852 24.312C136.84 26.6513 138.815 28.1054 141.843 28.1054C146.526 28.1054 149.586 24.6913 149.586 18.622V18.0846C149.586 12.0152 146.336 9.01215 141.97 8.98054C139.07 8.98054 137.031 10.2766 136.011 12.6474V3.29053H131.327V27.6312H135.47L135.852 24.312ZM144.838 18.6655C144.838 22.2741 143.168 24.0469 140.425 24.0469C137.808 24.0469 136.074 22.0842 136.074 18.6655V18.2856C136.074 15.1519 137.871 13.0309 140.488 13.0309C143.01 13.0309 144.838 14.8669 144.838 18.2224V18.6655Z" fill="#9E9E9E"/>
<path id="Vector_4" fill-rule="evenodd" clip-rule="evenodd" d="M110.513 9.45792V33.9034H115.189V24.7486C116.175 26.8755 118.115 28.1768 121.042 28.1768C125.368 28.1768 128.771 25.0343 128.771 19.0033V18.4954C128.771 12.3374 125.718 8.97266 121.042 8.97266C118.02 8.97266 115.984 10.528 114.998 12.877L114.521 9.45792H110.513ZM124.024 18.8873C124.024 22.2427 122.29 24.0471 119.579 24.0471C116.962 24.0471 115.26 22.0211 115.26 18.7924V18.444C115.26 15.057 117.025 13.0312 119.674 13.0312C122.164 13.0312 124.024 14.8355 124.024 18.4757V18.8873Z" fill="#9E9E9E"/>
<path id="Vector_5" fill-rule="evenodd" clip-rule="evenodd" d="M89.6973 18.9028C89.6973 24.9114 93.017 28.1056 98.8423 28.1056C104.292 28.1056 107.956 24.9114 107.956 18.9028V18.3968C107.956 12.3249 104.229 8.97266 98.8423 8.97266C93.5807 8.97266 89.6973 12.2616 89.6973 18.3968V18.9028ZM103.209 18.9041C103.209 22.2374 101.512 24.0471 98.8108 24.0471C96.1094 24.0471 94.4445 22.2057 94.4445 18.9041V18.4597C94.4445 14.9042 96.2036 13.0312 98.8423 13.0312C101.512 13.0312 103.209 15.0312 103.209 18.4597V18.9041Z" fill="#9E9E9E"/>
<path id="Vector_6" fill-rule="evenodd" clip-rule="evenodd" d="M76.916 27.6418H81.7052V19.2784C81.7052 15.4136 82.6631 14.0515 86.6221 14.0515H88.6016V9.20459H87.4202C84.0041 9.20459 82.1203 10.6935 81.3859 13.608L80.7793 9.43544H76.916V27.6418Z" fill="#9E9E9E"/>
<path id="Vector_7" fill-rule="evenodd" clip-rule="evenodd" d="M55.7363 5.146V27.6417H64.4319C70.0961 27.6417 74.3603 24.3578 74.3603 17.0956V15.5483C74.3603 8.31757 69.8416 5.146 64.3047 5.146H55.7363ZM60.4837 9.20449H64.1061C67.3779 9.20449 69.613 11.2677 69.613 15.8066V16.9811C69.613 21.52 67.4426 23.5832 64.2682 23.5832H60.4837V9.20449Z" fill="#9E9E9E"/>
<path id="Vector_8" d="M11.6103 0.461426L1.19043 7.07536L11.6103 13.6893L22.0319 7.07536L32.4519 13.6893L42.8717 7.07536L32.4519 0.461426L22.0319 7.07536L11.6103 0.461426Z" fill="#9E9E9E"/>
<path id="Vector_9" d="M11.6103 26.917L1.19043 20.303L11.6103 13.689L22.0319 20.303L11.6103 26.917Z" fill="#9E9E9E"/>
<path id="Vector_10" d="M22.0322 20.303L32.4522 13.689L42.872 20.303L32.4522 26.917L22.0322 20.303Z" fill="#9E9E9E"/>
<path id="Vector_11" d="M22.0319 35.7357L11.6104 29.1217L22.0319 22.5078L32.4519 29.1217L22.0319 35.7357Z" fill="#9E9E9E"/>
</g>
</svg>
