<svg width="29" height="29" viewBox="0 0 29 29" fill="none" xmlns="http://www.w3.org/2000/svg">
<g id="vuesax/linear/empty-wallet">
<g id="Group">
<path id="Vector" d="M21.4455 16.0798C20.9594 16.5543 20.6816 17.2372 20.751 17.9664C20.8552 19.2164 22.0011 20.1308 23.2511 20.1308H25.4502V21.5081C25.4502 23.904 23.4942 25.8601 21.0983 25.8601H7.81098C5.4151 25.8601 3.45905 23.904 3.45905 21.5081V13.7186C3.45905 11.3228 5.4151 9.3667 7.81098 9.3667H21.0983C23.4942 9.3667 25.4502 11.3228 25.4502 13.7186V15.3853H23.1122C22.464 15.3853 21.8738 15.64 21.4455 16.0798Z" stroke="#292D32" stroke-width="2.31486" stroke-linecap="round" stroke-linejoin="round"/>
<path id="Vector_2" d="M3.45901 14.76V9.47058C3.45901 8.09324 4.30394 6.86632 5.58869 6.3802L14.7787 2.90791C16.2139 2.36392 17.7533 3.42878 17.7533 4.96817V9.36638" stroke="#292D32" stroke-width="1.73614" stroke-linecap="round" stroke-linejoin="round"/>
</g>
<path id="Vector_3" d="M26.6757 16.566V18.9504C26.6757 19.587 26.1664 20.1078 25.5182 20.1309H23.2497C21.9997 20.1309 20.8538 19.2166 20.7496 17.9665C20.6802 17.2374 20.958 16.5545 21.4441 16.0799C21.8723 15.6401 22.4626 15.3855 23.1108 15.3855H25.5182C26.1664 15.4086 26.6757 15.9294 26.6757 16.566Z" stroke="#292D32" stroke-width="1.73614" stroke-linecap="round" stroke-linejoin="round"/>
<path id="Vector_4" d="M8.66745 14.2856H16.7695" stroke="#292D32" stroke-width="1.73614" stroke-linecap="round" stroke-linejoin="round"/>
</g>
</svg>
