<svg width="14" height="18" viewBox="0 0 14 18" fill="none" xmlns="http://www.w3.org/2000/svg">
<g id="Figma 1" clip-path="url(#clip0_616_180)">
<path id="path0_fill" d="M3.91732 18C5.71096 18 7.16667 16.656 7.16667 15V12H3.91732C2.12368 12 0.667969 13.344 0.667969 15C0.667969 16.656 2.12368 18 3.91732 18Z" fill="#0ACF83"/>
<path id="path1_fill" d="M0.667969 9C0.667969 7.344 2.12368 6 3.91732 6H7.16667V12H3.91732C2.12368 12 0.667969 10.656 0.667969 9Z" fill="#A259FF"/>
<path id="path1_fill_1_" d="M0.667969 3C0.667969 1.344 2.12368 0 3.91732 0H7.16667V6H3.91732C2.12368 6 0.667969 4.656 0.667969 3Z" fill="#F24E1E"/>
<path id="path2_fill" d="M7.16699 0H10.4163C12.21 0 13.6657 1.344 13.6657 3C13.6657 4.656 12.21 6 10.4163 6H7.16699V0Z" fill="#FF7262"/>
<path id="path3_fill" d="M13.6657 9C13.6657 10.656 12.21 12 10.4163 12C8.6227 12 7.16699 10.656 7.16699 9C7.16699 7.344 8.6227 6 10.4163 6C12.21 6 13.6657 7.344 13.6657 9Z" fill="#1ABCFE"/>
</g>
<defs>
<clipPath id="clip0_616_180">
<rect width="13" height="18" fill="white" transform="translate(0.666992)"/>
</clipPath>
</defs>
</svg>
