<svg width="199" height="36" viewBox="0 0 199 36" fill="none" xmlns="http://www.w3.org/2000/svg">
<g id="Group">
<path id="Vector" d="M4.99524 28.4543C4.26653 28.4559 3.55045 28.264 2.92016 27.8982C2.28987 27.5325 1.76797 27.006 1.40776 26.3725C1.05308 25.7435 0.876184 25.0299 0.896036 24.308C0.915888 23.5862 1.13174 22.8834 1.52046 22.2748L8.9083 10.6734C9.28643 10.0499 9.82325 9.53791 10.464 9.18977C11.1047 8.84162 11.8264 8.6698 12.5552 8.69182C13.2836 8.70927 13.9942 8.91993 14.6143 9.30221C15.2345 9.68449 15.742 10.2247 16.0848 10.8675C16.7735 12.1698 16.6874 13.7365 15.8626 14.959L8.47943 26.5604C8.10499 27.1438 7.58939 27.6232 6.98031 27.9543C6.37123 28.2854 5.68846 28.4573 4.99524 28.4543Z" fill="#9E9E9E"/>
<path id="Vector_2" d="M17.6674 28.4542C16.1774 28.4542 14.8063 27.6576 14.0863 26.3772C13.7323 25.7499 13.5559 25.0381 13.5757 24.3182C13.5955 23.5982 13.811 22.8973 14.199 22.2904L21.5727 10.7156C21.9452 10.0833 22.4801 9.56228 23.122 9.20643C23.7638 8.85054 24.4892 8.67287 25.2227 8.6918C26.7254 8.72466 28.0871 9.5652 28.7758 10.88C29.4598 12.1948 29.3596 13.7709 28.5097 14.9902L21.1375 26.565C20.7643 27.146 20.2508 27.6236 19.6443 27.9537C19.0378 28.2839 18.358 28.4561 17.6674 28.4542Z" fill="#9E9E9E"/>
<path id="Vector_3" d="M30.0554 28.5513C32.156 28.5513 33.8589 26.8842 33.8589 24.8277C33.8589 22.7711 32.156 21.104 30.0554 21.104C27.9548 21.104 26.252 22.7711 26.252 24.8277C26.252 26.8842 27.9548 28.5513 30.0554 28.5513Z" fill="#9E9E9E"/>
<path id="Vector_4" d="M195.289 21.3197C196.438 21.3197 197.125 22.1367 197.125 23.475V28.0611H198.686V23.3701C198.686 21.0943 197.614 19.7748 195.598 19.7748C194.809 19.7748 193.556 19.9908 192.81 21.4418C192.636 21.0138 192.35 20.6408 191.982 20.3625C191.613 20.0841 191.177 19.9108 190.717 19.8609C190.428 19.808 190.134 19.7906 189.841 19.8093C189.199 19.8609 188.056 20.26 187.629 21.1647V19.9486H186.067V28.0611H187.629V23.6832C187.629 21.9802 188.743 21.3197 189.859 21.3197C190.905 21.3197 191.592 22.1195 191.592 23.4578V28.0611H193.145V23.6832C193.145 22.3277 193.959 21.304 195.289 21.3197ZM180.334 26.7056C181.047 26.7213 181.736 26.4364 182.235 25.9199C182.736 25.4034 183.002 24.7006 182.976 23.979C182.976 22.3449 181.774 21.3197 180.334 21.3197C178.892 21.3197 177.691 22.3449 177.691 23.979C177.663 24.699 177.929 25.4002 178.427 25.9152C178.925 26.4317 179.61 26.7181 180.321 26.7056H180.334ZM180.334 28.227C178.051 28.227 176.147 26.5413 176.147 23.9696C176.147 21.398 178.051 19.7654 180.334 19.7654C182.616 19.7654 184.536 21.398 184.536 23.9696C184.536 26.5413 182.605 28.2348 180.323 28.2348L180.334 28.227ZM168.109 23.9696L168.094 23.979C168.094 21.4074 170.048 19.7748 172.346 19.7654C172.924 19.7542 173.497 19.8644 174.029 20.0887C174.561 20.313 175.04 20.6466 175.434 21.0677L174.251 22.0757C174 21.8289 173.702 21.6343 173.375 21.5032C173.048 21.3721 172.698 21.3071 172.346 21.3119C170.906 21.3119 169.654 22.3371 169.654 23.9696C169.654 25.0731 170.31 26.067 171.316 26.4896C172.323 26.9122 173.481 26.6774 174.251 25.898L175.452 26.906C175.055 27.3314 174.574 27.6689 174.039 27.8964C173.504 28.124 172.928 28.2366 172.346 28.227C170.066 28.227 168.109 26.5413 168.109 23.9696ZM163.111 26.5037C163.11 26.3619 163.136 26.2211 163.189 26.0894C163.242 25.9578 163.32 25.8378 163.419 25.7363C163.518 25.6349 163.636 25.5539 163.767 25.4981C163.897 25.4424 164.037 25.4128 164.179 25.4112C164.321 25.4128 164.461 25.4424 164.591 25.4981C164.722 25.5539 164.84 25.6349 164.939 25.7363C165.038 25.8378 165.116 25.9578 165.169 26.0894C165.222 26.2211 165.248 26.3619 165.246 26.5037C165.232 26.7784 165.114 27.0374 164.916 27.2279C164.717 27.4184 164.454 27.5261 164.179 27.5289C163.904 27.5261 163.64 27.4184 163.442 27.2279C163.244 27.0374 163.125 26.7784 163.111 26.5037Z" fill="#9E9E9E"/>
<path id="Vector_5" fill-rule="evenodd" clip-rule="evenodd" d="M167.382 9.63546H161.824L157.928 19.6795L154.053 9.63546H148.495L155.252 25.5068L151.049 36H156.566L167.382 9.63546ZM133.58 18.4633C133.58 20.999 135.796 22.6675 137.973 22.6675C140.113 22.6675 142.215 21.1148 142.215 18.4617C142.215 15.8087 140.113 14.2544 137.973 14.2544C135.796 14.2544 133.58 15.9245 133.58 18.4617V18.4633ZM142.215 27.3256V25.3174C141.088 27.0235 138.458 27.6683 137.109 27.6683C132.642 27.6683 128.173 24.1466 128.173 18.4617C128.173 12.7784 132.64 9.2567 137.109 9.2567C138.235 9.2567 140.864 9.63233 142.215 11.6045V9.64173H147.396V27.3287L142.215 27.3271V27.3256ZM126.699 27.3256H121.518V25.128C120.652 26.7558 118.553 27.7043 116.375 27.7043C111.868 27.7043 107.888 24.1059 107.888 18.5337C107.888 12.8567 111.868 9.25357 116.375 9.25357C118.55 9.25357 120.656 10.1614 121.518 11.7908V0H126.699V27.3256ZM121.405 18.4226C121.405 15.7711 119.491 14.2169 117.351 14.2169C115.135 14.2169 113.294 15.8838 113.294 18.4226C113.294 21.0428 115.135 22.7019 117.35 22.7019C119.53 22.705 121.405 20.9614 121.405 18.4226ZM95.0783 17.9656C95.0783 15.2765 96.4683 14.3671 98.3072 14.3671C100.071 14.3671 101.349 15.541 101.349 17.8889V27.3224H106.567V16.7541C106.567 11.7172 104.088 9.25357 100.145 9.25357C98.0802 9.25357 96.0159 10.4275 95.0766 12.2087V9.63546H89.8612V27.3224H95.0783V17.9656ZM79.2649 27.6261C74.3092 27.6261 70.1756 23.9901 70.1756 18.421C70.1756 12.8489 74.3046 9.24887 79.2649 9.24887C84.2249 9.24887 88.3903 12.8489 88.3903 18.421C88.3903 23.9932 84.2202 27.6277 79.2649 27.6277V27.6261ZM79.2649 22.4765C81.4406 22.4765 83.2453 20.8831 83.2453 18.4226C83.2453 16.0357 81.4423 14.4063 79.2649 14.4063C78.7406 14.3981 78.2201 14.4966 77.7351 14.696C77.2502 14.8954 76.811 15.1915 76.4442 15.5661C76.0753 15.9427 75.7861 16.3897 75.5929 16.8804C75.4002 17.3711 75.3083 17.8956 75.3223 18.4226C75.3236 20.8863 77.1253 22.4765 79.2649 22.4765ZM60.8202 14.3687C62.3589 14.3687 63.7112 15.5817 63.7112 17.8904V27.3256H68.8923V17.28C68.8923 11.9395 66.2956 9.25043 62.1336 9.25043C60.8969 9.25043 58.5679 9.6261 56.8776 12.3934C55.9009 10.3477 54.0243 9.28643 51.2506 9.28643C50.2875 9.28152 49.3438 9.55406 48.5315 10.0714C47.7192 10.5889 47.0733 11.3292 46.671 12.204V9.63703H41.4492V27.324H46.6663V17.9656C46.6663 15.2765 48.1313 14.3671 49.7072 14.3671C51.2099 14.3671 52.5593 15.541 52.5983 17.7762V27.324H57.8166V17.9656C57.8166 15.3939 59.1689 14.3703 60.8202 14.3703V14.3687Z" fill="#9E9E9E"/>
</g>
</svg>
