<svg width="38" height="38" viewBox="0 0 38 38" fill="none" xmlns="http://www.w3.org/2000/svg">
<g id="icon / outlined / other / mail / inbox">
<path id="Vector" d="M34.4928 19H25.197L22.0984 23.6479H15.9012L12.8026 19H3.50684" stroke="#25282B" stroke-width="3.09859" stroke-linecap="round" stroke-linejoin="round"/>
<path id="Vector_2" d="M8.85191 8.32568L3.50684 19.0003V28.2961C3.50684 29.1179 3.83329 29.906 4.41439 30.4871C4.99549 31.0682 5.78363 31.3947 6.60543 31.3947H31.3942C32.216 31.3947 33.0041 31.0682 33.5852 30.4871C34.1663 29.906 34.4928 29.1179 34.4928 28.2961V19.0003L29.1477 8.32568C28.8912 7.80943 28.4957 7.37498 28.0058 7.07118C27.5159 6.76738 26.9509 6.60626 26.3744 6.60596H11.6251C11.0487 6.60626 10.4837 6.76738 9.99381 7.07118C9.50389 7.37498 9.10843 7.80943 8.85191 8.32568V8.32568Z" stroke="#25282B" stroke-width="3.09859" stroke-linecap="round" stroke-linejoin="round"/>
</g>
</svg>
