<svg width="38" height="38" viewBox="0 0 38 38" fill="none" xmlns="http://www.w3.org/2000/svg">
<g id="UI icon/line_chart/light">
<path id="Vector 606 (Stroke)" fill-rule="evenodd" clip-rule="evenodd" d="M5.05613 3.50732C5.91178 3.50732 6.60543 4.20097 6.60543 5.05662V29.8454C6.60543 30.701 7.29907 31.3946 8.15472 31.3946H32.9435C33.7991 31.3946 34.4928 32.0883 34.4928 32.9439C34.4928 33.7996 33.7991 34.4932 32.9435 34.4932H8.15472C5.58777 34.4932 3.50684 32.4123 3.50684 29.8454V5.05662C3.50684 4.20097 4.20048 3.50732 5.05613 3.50732Z" fill="#35383F"/>
<path id="Vector 618 (Stroke)" fill-rule="evenodd" clip-rule="evenodd" d="M34.0393 13.257C34.6443 13.862 34.6443 14.843 34.0393 15.448L26.9346 22.5528C25.1194 24.3679 22.1766 24.3679 20.3614 22.5528L16.997 19.1884C16.392 18.5833 15.411 18.5833 14.806 19.1884L11.5745 22.4199C10.9695 23.0249 9.9885 23.0249 9.38347 22.4199C8.77843 21.8148 8.77843 20.8339 9.38347 20.2288L12.615 16.9973C14.4301 15.1822 17.373 15.1822 19.1881 16.9973L22.5525 20.3617C23.1575 20.9668 24.1385 20.9668 24.7435 20.3617L31.8483 13.257C32.4533 12.652 33.4343 12.652 34.0393 13.257Z" fill="#35383F"/>
</g>
</svg>
