<svg width="18" height="19" viewBox="0 0 18 19" fill="none" xmlns="http://www.w3.org/2000/svg">
<g id="UI icon/trending_up/light">
<path id="Union" fill-rule="evenodd" clip-rule="evenodd" d="M12 5.33105C11.5858 5.33105 11.25 5.66684 11.25 6.08105C11.25 6.49527 11.5858 6.83105 12 6.83105H13.9393L9.75 11.0204L7.81066 9.08105C7.22487 8.49527 6.27513 8.49527 5.68934 9.08105L1.71967 13.0507C1.42678 13.3436 1.42678 13.8185 1.71967 14.1114C2.01256 14.4043 2.48744 14.4043 2.78033 14.1114L6.75 10.1417L8.68934 12.0811C9.27513 12.6668 10.2249 12.6668 10.8107 12.0811L15 7.89172V9.83105C15 10.2453 15.3358 10.5811 15.75 10.5811C16.1642 10.5811 16.5 10.2453 16.5 9.83105V6.08105C16.5 5.66684 16.1642 5.33105 15.75 5.33105H12Z" fill="#14C38A"/>
</g>
</svg>
