<svg width="24" height="24" viewBox="0 0 24 24" fill="none" xmlns="http://www.w3.org/2000/svg">
<g id="icon / outlined / brand and logo / linkedin">
<path id="Vector" d="M15.999 8C17.5903 8 19.1164 8.63214 20.2417 9.75736C21.3669 10.8826 21.999 12.4087 21.999 14V21H17.999V14C17.999 13.4696 17.7883 12.9609 17.4132 12.5858C17.0382 12.2107 16.5295 12 15.999 12C15.4686 12 14.9599 12.2107 14.5848 12.5858C14.2097 12.9609 13.999 13.4696 13.999 14V21H9.99902V14C9.99902 12.4087 10.6312 10.8826 11.7564 9.75736C12.8816 8.63214 14.4077 8 15.999 8Z" fill="#25282B"/>
<path id="Vector_2" d="M6 9H2V21H6V9Z" fill="#25282B"/>
<path id="Vector_3" d="M4 6C5.10457 6 6 5.10457 6 4C6 2.89543 5.10457 2 4 2C2.89543 2 2 2.89543 2 4C2 5.10457 2.89543 6 4 6Z" fill="#25282B"/>
</g>
</svg>
