<svg width="28" height="36" viewBox="0 0 28 36" fill="none" xmlns="http://www.w3.org/2000/svg">
<g id="vuesax/linear/mobile">
<g id="mobile">
<path id="Vector" d="M26.3942 10.2533V25.7463C26.3942 31.9435 24.8449 33.4928 18.6477 33.4928H9.35195C3.15476 33.4928 1.60547 31.9435 1.60547 25.7463V10.2533C1.60547 4.05613 3.15476 2.50684 9.35195 2.50684H18.6477C24.8449 2.50684 26.3942 4.05613 26.3942 10.2533Z" stroke="#292D32" stroke-width="3.09859" stroke-linecap="round" stroke-linejoin="round"/>
<path id="Vector_2" d="M17.0986 7.9292H10.9014" stroke="#292D32" stroke-width="2.32394" stroke-linecap="round" stroke-linejoin="round"/>
<path id="Vector_3" d="M14 28.9996C15.3263 28.9996 16.4015 27.9244 16.4015 26.5982C16.4015 25.2719 15.3263 24.1968 14 24.1968C12.6738 24.1968 11.5986 25.2719 11.5986 26.5982C11.5986 27.9244 12.6738 28.9996 14 28.9996Z" stroke="#292D32" stroke-width="2.32394" stroke-linecap="round" stroke-linejoin="round"/>
</g>
</g>
</svg>
