<svg width="44" height="44" viewBox="0 0 44 44" fill="none" xmlns="http://www.w3.org/2000/svg">
<g id="vuesax/linear/money-send">
<g id="Group">
<path id="Vector" d="M17.417 25.2083C17.417 26.9866 18.792 28.4166 20.4787 28.4166H23.9253C25.392 28.4166 26.5837 27.1699 26.5837 25.6116C26.5837 23.9433 25.8503 23.3383 24.7687 22.9533L19.2503 21.0283C18.1687 20.6433 17.4353 20.0566 17.4353 18.3699C17.4353 16.8299 18.627 15.5649 20.0936 15.5649H23.5403C25.227 15.5649 26.602 16.9949 26.602 18.7733" stroke="#292D32" stroke-width="3" stroke-linecap="round" stroke-linejoin="round"/>
<path id="Vector_2" d="M22 13.75V30.25" stroke="#292D32" stroke-width="3" stroke-linecap="round" stroke-linejoin="round"/>
</g>
<path id="Vector_3" d="M40.3337 21.9998C40.3337 32.1198 32.1203 40.3332 22.0003 40.3332C11.8803 40.3332 3.66699 32.1198 3.66699 21.9998C3.66699 11.8798 11.8803 3.6665 22.0003 3.6665" stroke="#292D32" stroke-width="3" stroke-linecap="round" stroke-linejoin="round"/>
<path id="Vector_4" d="M40.3333 10.9998V3.6665H33" stroke="#292D32" stroke-width="3" stroke-linecap="round" stroke-linejoin="round"/>
<path id="Vector_5" d="M31.167 12.8332L40.3337 3.6665" stroke="#292D32" stroke-width="3" stroke-linecap="round" stroke-linejoin="round"/>
</g>
</svg>
