<svg width="148" height="36" viewBox="0 0 148 36" fill="none" xmlns="http://www.w3.org/2000/svg">
<g id="pinterest-logo-svg-150px" clip-path="url(#clip0_73_2930)">
<path id="Vector" d="M58.3857 12.9556H63.0312V27.5472H58.3857V12.9556Z" fill="#9E9E9E"/>
<path id="Vector_2" d="M64.001 12.9557H68.4754V14.9507H68.5608C69.6439 13.3831 71.0403 12.5283 73.0639 12.5283C76.2557 12.5283 78.1367 14.8082 78.1367 18.0571V27.5473H73.4913V18.9976C73.4913 17.4586 72.7218 16.404 71.2113 16.404C69.6724 16.404 68.6464 17.6867 68.6464 19.4821V27.5473H64.001V12.9557Z" fill="#9E9E9E"/>
<path id="Vector_3" d="M63.495 9.05169C63.495 7.51263 62.2473 6.26514 60.7084 6.26514C59.1695 6.26514 57.9219 7.51263 57.9219 9.05169C57.9219 10.5906 59.1695 11.8381 60.7084 11.8381C62.2473 11.8381 63.495 10.5906 63.495 9.05169Z" fill="#9E9E9E"/>
<path id="Vector_4" d="M110.809 12.7448C110.676 12.7328 110.524 12.7275 110.346 12.7275C108.58 12.7275 107.383 13.497 106.357 15.2355H106.271V12.9555H101.825V27.547H106.471V20.9922C106.471 17.9551 108.153 16.5478 110.809 16.7934V12.7448Z" fill="#9E9E9E"/>
<path id="Vector_5" d="M133.606 18.3415C131.753 17.9997 130.1 17.8572 130.1 16.8313C130.1 15.9192 130.983 15.4918 132.123 15.4918C133.406 15.4918 134.289 15.8908 134.46 17.2017H138.735C138.508 14.3233 136.284 12.5278 132.152 12.5278C128.704 12.5278 125.854 14.1238 125.854 17.2017C125.854 20.6215 128.561 21.3055 131.097 21.7331C133.035 22.0752 134.802 22.2176 134.802 23.5285C134.802 24.469 133.918 24.982 132.522 24.982C131.121 24.982 130.194 24.3893 129.91 23.1866H125.484C125.81 26.1862 128.443 28.0029 132.551 28.0029C136.369 28.0029 139.191 26.35 139.191 23.1582C139.191 19.4247 136.171 18.7692 133.606 18.3415Z" fill="#9E9E9E"/>
<path id="Vector_6" d="M118.016 15.8337C119.526 15.8337 120.608 16.9451 120.78 18.6838H115.023C115.336 16.9451 116.248 15.8337 118.016 15.8337ZM118.272 24.6399C116.362 24.6399 115.279 23.4146 114.994 21.448H125.483C125.51 18.4843 124.656 15.9477 122.918 14.3519C121.663 13.2119 120.01 12.5278 117.93 12.5278C113.484 12.5278 110.435 15.8621 110.435 20.2227C110.435 24.6399 113.399 27.9745 118.215 27.9745C120.068 27.9745 121.549 27.49 122.775 26.635C124.058 25.7516 124.912 24.4975 125.226 23.1867H120.695C120.295 24.0986 119.497 24.6399 118.272 24.6399Z" fill="#9E9E9E"/>
<path id="Vector_7" d="M147.373 24.1065C147.158 24.115 146.868 24.1276 146.602 24.1276C145.605 24.1276 144.978 23.8425 144.978 22.7025V15.8626H147.373V12.9557H144.978V8.33887H140.447V12.9557H139.021V15.8626H140.447V23.7C140.447 26.8351 142.385 27.7184 145.092 27.7184C146.125 27.7184 146.906 27.641 147.373 27.55V24.1065Z" fill="#9E9E9E"/>
<path id="Vector_8" d="M86.433 24.1132C86.2477 24.1203 86.0337 24.1276 85.8338 24.1276C84.8365 24.1276 84.2094 23.8425 84.2094 22.7025V15.8627H86.433V12.9557H84.2094V8.33887H79.6781V12.9557H78.167V15.8627H79.6781V23.7C79.6781 26.8351 81.616 27.7184 84.3235 27.7184C85.2396 27.7184 85.9568 27.6574 86.433 27.5801V24.1132Z" fill="#9E9E9E"/>
<path id="Vector_9" d="M96.5514 18.6841C96.3804 16.9456 95.2973 15.834 93.7868 15.834C92.0199 15.834 91.1079 16.9456 90.7944 18.6841H96.5514ZM86.2061 20.223C86.2061 15.8626 89.2555 12.5283 93.7014 12.5283C95.7817 12.5283 97.4348 13.2122 98.6887 14.3522C100.427 15.9482 101.282 18.4845 101.254 21.4485H90.7661C91.0509 23.4149 92.1339 24.6404 94.0435 24.6404C95.2687 24.6404 96.0668 24.0989 96.4657 23.187H100.997C100.684 24.4979 99.8288 25.7518 98.5461 26.6355C97.3209 27.4903 95.8389 27.9748 93.9863 27.9748C89.1699 27.9748 86.2061 24.6404 86.2061 20.223Z" fill="#9E9E9E"/>
<path id="Vector_10" d="M50.3184 16.7462C52.1424 16.7462 53.1683 15.6632 53.1683 14.0386C53.1683 12.4143 52.1138 11.4168 50.3184 11.4168H46.7557V16.7462H50.3184ZM42.0527 7.17041H50.1197C52.599 7.17041 54.423 7.85433 55.6769 9.05136C56.988 10.2767 57.7291 12.0153 57.7291 14.0671C57.7291 17.9716 55.0216 20.7361 50.8321 20.7361H46.7557V27.5474H42.0527V7.17041Z" fill="#9E9E9E"/>
<path id="Vector_11" d="M35.6762 17.9714C35.6762 27.6578 27.8237 35.5102 18.1374 35.5102C8.45106 35.5102 0.598633 27.6578 0.598633 17.9714C0.598633 8.28491 8.45106 0.432617 18.1374 0.432617C27.8237 0.432617 35.6762 8.28491 35.6762 17.9714Z" fill="#F2F4F7"/>
<path id="Vector_12" d="M18.1374 0.432617C8.45106 0.432617 0.598633 8.28505 0.598633 17.9714C0.598633 25.4017 5.22156 31.7537 11.7458 34.3091C11.5926 32.9214 11.454 30.7873 11.8066 29.2724C12.1253 27.9036 13.8632 20.5546 13.8632 20.5546C13.8632 20.5546 13.3386 19.5039 13.3386 17.9506C13.3386 15.5118 14.7522 13.6911 16.5123 13.6911C18.0086 13.6911 18.7313 14.8145 18.7313 16.1616C18.7313 17.6665 17.7732 19.9163 17.2789 22.0012C16.8656 23.7469 18.1542 25.1705 19.876 25.1705C22.9932 25.1705 25.3894 21.8837 25.3894 17.1392C25.3894 12.9397 22.372 10.0037 18.0634 10.0037C13.0729 10.0037 10.1438 13.7468 10.1438 17.615C10.1438 19.1224 10.7245 20.7388 11.4491 21.6175C11.5924 21.7912 11.6134 21.9434 11.5707 22.1206C11.4376 22.6745 11.1417 23.8659 11.0836 24.1097C11.0071 24.4307 10.8294 24.4988 10.4971 24.3441C8.30657 23.3245 6.93702 20.1219 6.93702 17.5495C6.93702 12.017 10.9568 6.93605 18.5256 6.93605C24.6097 6.93605 29.3379 11.2716 29.3379 17.0657C29.3379 23.1102 25.5268 27.9748 20.2368 27.9748C18.4596 27.9748 16.7889 27.0515 16.2169 25.9609C16.2169 25.9609 15.3375 29.3096 15.1243 30.1302C14.7284 31.6536 13.6594 33.5631 12.9445 34.7281C14.5854 35.2361 16.3294 35.5102 18.1374 35.5102C27.8239 35.5102 35.6763 27.6577 35.6763 17.9714C35.6763 8.28505 27.8239 0.432617 18.1374 0.432617Z" fill="#9E9E9E"/>
</g>
<defs>
<clipPath id="clip0_73_2930">
<rect width="147.105" height="36" fill="white" transform="translate(0.447266)"/>
</clipPath>
</defs>
</svg>
