<svg width="43" height="44" viewBox="0 0 43 44" fill="none" xmlns="http://www.w3.org/2000/svg">
<g id="vuesax/linear/receipt-text">
<path id="Vector" d="M39.167 10.9998V15.4365C39.167 18.3332 37.417 20.1665 34.652 20.1665H28.667V7.3515C28.667 5.3165 30.2595 3.6665 32.202 3.6665C34.1095 3.68484 35.8595 4.4915 37.1195 5.8115C38.3795 7.14984 39.167 8.98317 39.167 10.9998Z" stroke="#292D32" stroke-width="3" stroke-miterlimit="10" stroke-linecap="round" stroke-linejoin="round"/>
<path id="Vector_2" d="M4.16699 12.8332V38.4998C4.16699 40.0215 5.81195 40.8832 6.96695 39.9665L9.95949 37.6198C10.6595 37.0698 11.6395 37.1432 12.2695 37.8032L15.1745 40.8648C15.857 41.5798 16.977 41.5798 17.6595 40.8648L20.5995 37.7848C21.212 37.1432 22.192 37.0698 22.8745 37.6198L25.867 39.9665C27.022 40.8648 28.667 40.0032 28.667 38.4998V7.33317C28.667 5.3165 30.242 3.6665 32.167 3.6665H12.917H11.167C5.91699 3.6665 4.16699 6.94817 4.16699 10.9998V12.8332Z" stroke="#292D32" stroke-width="3" stroke-miterlimit="10" stroke-linecap="round" stroke-linejoin="round"/>
<path id="Vector_3" d="M11.167 16.5H21.667" stroke="#292D32" stroke-width="3" stroke-linecap="round" stroke-linejoin="round"/>
<path id="Vector_4" d="M12.4795 23.8335H20.3545" stroke="#292D32" stroke-width="3" stroke-linecap="round" stroke-linejoin="round"/>
</g>
</svg>
