<svg width="144" height="36" viewBox="0 0 144 36" fill="none" xmlns="http://www.w3.org/2000/svg">
<g id="slack-logo-svg-150px" style="mix-blend-mode:luminosity" clip-path="url(#clip0_73_2722)">
<path id="Vector" d="M45.398 28.4861L47.1554 24.3785C49.0797 25.8036 51.5895 26.5578 54.0998 26.5578C55.9406 26.5578 57.1119 25.8456 57.1119 24.756C57.0698 21.738 46.0256 24.0852 45.9416 16.4976C45.8996 12.6414 49.3304 9.66541 54.1838 9.66541C57.0698 9.66541 59.957 10.3782 62.0066 12.0132L60.3644 16.2084C58.4786 14.9958 56.1494 14.1504 53.9325 14.1504C52.4264 14.1504 51.422 14.8626 51.422 15.7853C51.464 18.7614 62.5928 17.1264 62.7182 24.3785C62.7182 28.3188 59.3708 31.0853 54.6014 31.0853C51.0878 31.0853 47.8665 30.2473 45.3975 28.4861H45.398ZM115.375 22.8912C114.931 23.6794 114.286 24.3353 113.505 24.792C112.724 25.2484 111.836 25.4891 110.932 25.4892C108.113 25.4892 105.828 23.1996 105.828 20.3753C105.828 17.5512 108.113 15.2616 110.932 15.2616C111.836 15.2616 112.724 15.5024 113.505 15.9589C114.286 16.4153 114.931 17.0714 115.375 17.8597L120.261 15.1476C118.431 11.877 114.94 9.66541 110.932 9.66541C105.028 9.66541 100.243 14.46 100.243 20.3753C100.243 26.2901 105.028 31.0853 110.932 31.0853C114.94 31.0853 118.431 28.8738 120.261 25.6033L115.375 22.8912ZM65.8887 30.666H71.9966V0.75H65.8892L65.8887 30.666ZM123.345 0.75V30.666H129.453V21.7032L136.691 30.666H144.498L135.294 20.0184L143.829 10.083H136.356L129.453 18.3432V0.75H123.345ZM90.8145 10.0842V12.516C89.8107 10.839 87.3422 9.66541 84.7485 9.66541C79.3934 9.66541 75.1682 14.4024 75.1682 20.3545C75.1682 26.3064 79.3934 31.0853 84.7485 31.0853C87.3422 31.0853 89.8107 29.9117 90.8145 28.2349V30.666H96.9224V10.0842H90.8145ZM90.8145 22.9326C89.9361 24.3996 88.0952 25.4886 86.0456 25.4886C83.2263 25.4886 80.9414 23.1996 80.9414 20.3753C80.9414 17.5512 83.2263 15.2616 86.0456 15.2616C88.0952 15.2616 89.9361 16.3932 90.8145 17.9016V22.9326Z" fill="#9E9E9E"/>
<path id="Vector_2" d="M13.1412 0.0888672C11.1618 0.0888672 9.5574 1.69686 9.5574 3.67987C9.55694 4.15097 9.64925 4.61756 9.82909 5.05298C10.009 5.48841 10.2728 5.88414 10.6056 6.2176C10.9384 6.55106 11.3336 6.8157 11.7686 6.99642C12.2037 7.17714 12.6701 7.2704 13.1412 7.27087H16.7256V3.67987C16.7265 2.72838 16.3492 1.81553 15.677 1.1421C15.0048 0.468675 14.0927 0.0898215 13.1412 0.0888672ZM13.1412 9.66487H3.5838C1.6044 9.66487 0 11.2729 0 13.2565C0 15.2394 1.6044 16.8475 3.5838 16.8475H13.1418C15.1206 16.8475 16.7256 15.2394 16.7256 13.2565C16.7256 11.2729 15.1206 9.66487 13.1412 9.66487Z" fill="#9E9E9E"/>
<path id="Vector_3" d="M35.8408 13.2565C35.8408 11.2729 34.2358 9.66487 32.2564 9.66487C30.277 9.66487 28.6727 11.2729 28.6727 13.2565V16.8475H32.2564C33.2079 16.8465 34.12 16.4676 34.7922 15.7943C35.4644 15.1208 35.8416 14.208 35.8408 13.2565ZM26.2834 13.2565V3.67987C26.2841 2.72838 25.907 1.81553 25.2348 1.1421C24.5626 0.468675 23.6505 0.0898215 22.699 0.0888672C20.7195 0.0888672 19.1152 1.69686 19.1152 3.67987V13.2559C19.1152 15.24 20.7195 16.8481 22.699 16.8481C23.6505 16.8471 24.5626 16.4682 25.2348 15.7949C25.907 15.1214 26.2841 14.2086 26.2834 13.2571" fill="#9E9E9E"/>
<path id="Vector_4" d="M22.699 36.0003C23.6505 35.9994 24.5626 35.6205 25.2348 34.9471C25.907 34.2737 26.2841 33.3608 26.2834 32.4093C26.2841 31.4578 25.907 30.545 25.2348 29.8715C24.5626 29.1981 23.6505 28.8193 22.699 28.8183H19.1152V32.4093C19.1152 34.3924 20.7195 36.0003 22.699 36.0003ZM22.699 26.4243H32.257C34.2358 26.4243 35.8408 24.8164 35.8408 22.8328C35.8416 21.8812 35.4644 20.9684 34.7922 20.2949C34.12 19.6216 33.2079 19.2427 32.2564 19.2417H22.699C20.7195 19.2417 19.1152 20.8497 19.1152 22.8328C19.1147 23.3038 19.2071 23.7704 19.387 24.2058C19.5667 24.6413 19.8306 25.037 20.1634 25.3705C20.4962 25.7038 20.8913 25.9685 21.3265 26.1492C21.7615 26.33 22.2279 26.4233 22.699 26.4237" fill="#9E9E9E"/>
<path id="Vector_5" d="M1.8083e-06 22.8328C-0.000471188 23.3038 0.0918514 23.7704 0.271698 24.2058C0.451545 24.6413 0.715393 25.037 1.04818 25.3705C1.38097 25.7038 1.77617 25.9685 2.21124 26.1492C2.6463 26.33 3.1127 26.4233 3.5838 26.4237C4.53529 26.4227 5.44745 26.0438 6.11964 25.3705C6.79182 24.697 7.169 23.7842 7.16821 22.8328V19.2417H3.5838C1.6044 19.2417 1.8083e-06 20.8497 1.8083e-06 22.8328ZM9.5574 22.8328V32.4088C9.5574 34.3924 11.1618 36.0003 13.1412 36.0003C14.0927 35.9994 15.0048 35.6205 15.677 34.9471C16.3492 34.2737 16.7265 33.3608 16.7256 32.4093V22.8328C16.726 22.3616 16.6337 21.8949 16.4539 21.4594C16.274 21.024 16.0101 20.6283 15.6773 20.2948C15.3444 19.9613 14.9491 19.6967 14.5139 19.516C14.0788 19.3353 13.6124 19.2421 13.1412 19.2417C11.1618 19.2417 9.5574 20.8497 9.5574 22.8328Z" fill="#9E9E9E"/>
</g>
<defs>
<clipPath id="clip0_73_2722">
<rect width="144" height="36" fill="white"/>
</clipPath>
</defs>
</svg>
