<svg width="88" height="36" viewBox="0 0 88 36" fill="none" xmlns="http://www.w3.org/2000/svg">
<g id="stripe-logo-svg-150px" clip-path="url(#clip0_73_2752)">
<path id="Vector" d="M6.98762 14.044C6.98762 13.1111 7.75321 12.7521 9.02145 12.7521C10.8396 12.7521 13.1364 13.3025 14.9547 14.2834V8.66086C12.969 7.87138 11.0072 7.56034 9.02145 7.56034C4.16448 7.56034 0.93457 10.0965 0.93457 14.3314C0.93457 20.9345 10.0261 19.8819 10.0261 22.7291C10.0261 23.8295 9.06922 24.1885 7.72932 24.1885C5.7436 24.1885 3.20745 23.3749 1.19767 22.2744V27.9686C3.42278 28.9257 5.67177 29.3323 7.72932 29.3323C12.7057 29.3323 16.1271 26.8681 16.1271 22.5855C16.1032 15.4558 6.98762 16.7237 6.98762 14.044ZM23.161 2.77536L17.3233 4.01938L17.2994 23.1835C17.2994 26.7246 19.9552 29.3323 23.4961 29.3323C25.458 29.3323 26.8934 28.9734 27.6829 28.5428V23.686C26.9175 23.997 23.1371 25.0976 23.1371 21.5566V13.0631H27.6829V7.9671H23.1371L23.161 2.77536ZM35.1238 9.7375L34.7409 7.9671H29.5731V28.9016H35.5545V14.7141C36.9659 12.8719 39.3585 13.2068 40.1002 13.4699V7.9671C39.3346 7.67994 36.5354 7.15357 35.1238 9.7375ZM41.5596 7.9671H47.5648V28.9016H41.5596V7.9671ZM41.5596 6.14877L47.5648 4.8568V0L41.5596 1.26807V6.14877ZM60.0538 7.56034C57.7091 7.56034 56.2018 8.66086 55.3646 9.42662L55.0533 7.94321H49.7899V35.8399L55.7711 34.5719L55.7952 27.8011C56.6565 28.4232 57.9244 29.3084 60.0299 29.3084C64.3126 29.3084 68.2123 25.8631 68.2123 18.2789C68.1885 11.3405 64.2407 7.56034 60.0538 7.56034ZM58.6184 24.0448C57.2068 24.0448 56.3692 23.5425 55.7952 22.9204L55.7711 14.044C56.3932 13.3503 57.2546 12.8719 58.6184 12.8719C60.7955 12.8719 62.3028 15.3121 62.3028 18.4463C62.3028 21.6523 60.8194 24.0448 58.6184 24.0448ZM87.0654 18.5181C87.0654 12.3933 84.0986 7.56034 78.4284 7.56034C72.734 7.56034 69.2888 12.3934 69.2888 18.4704C69.2888 25.6717 73.3563 29.3084 79.1939 29.3084C82.0411 29.3084 84.1943 28.6624 85.8212 27.7533V22.9682C84.1945 23.7817 82.3282 24.2842 79.9596 24.2842C77.6388 24.2842 75.5812 23.4707 75.3181 20.6475H87.0176C87.0176 20.3363 87.0654 19.0923 87.0654 18.5181ZM75.2463 16.2453C75.2463 13.5417 76.8973 12.4171 78.4046 12.4171C79.8639 12.4171 81.4191 13.5417 81.4191 16.2453H75.2463Z" fill="#9E9E9E"/>
</g>
<defs>
<clipPath id="clip0_73_2752">
<rect width="86.1308" height="36" fill="white" transform="translate(0.93457)"/>
</clipPath>
</defs>
</svg>
