<svg width="56" height="18" viewBox="0 0 56 18" fill="none" xmlns="http://www.w3.org/2000/svg">
<g id="Visa">
<g id="Visa_2">
<path id="Vector 2" d="M20.1031 17.4688L22.8749 1.20791H27.3068L24.5342 17.4688H20.1031ZM40.5263 1.56464C39.2544 1.10392 37.9109 0.872734 36.5582 0.881851C32.1843 0.881851 29.103 3.08457 29.0765 6.24217C29.0524 8.57594 31.2767 9.87761 32.9558 10.6542C34.679 11.4506 35.2581 11.9583 35.2498 12.6693C35.239 13.7578 33.8735 14.2548 32.6016 14.2548C30.8295 14.2548 29.8887 14.0059 28.4343 13.4028L27.8644 13.1447L27.243 16.7802C28.2767 17.2332 30.189 17.6265 32.1735 17.6464C36.827 17.6464 39.8477 15.4694 39.8825 12.0977C39.8991 10.2501 38.721 8.84388 36.1657 7.68488C34.6185 6.93821 33.671 6.43212 33.681 5.67135C33.681 4.99685 34.4832 4.2751 36.2163 4.2751C37.3519 4.24968 38.4802 4.46161 39.5291 4.89733L39.9256 5.08481L40.5263 1.56464ZM51.9122 1.20791H48.5024C47.4463 1.20791 46.6556 1.49664 46.1919 2.55028L39.6377 17.3858H44.3028C44.3028 17.3858 45.0495 15.413 45.2212 14.9799L50.8105 14.9865C50.9408 15.5474 51.3415 17.3858 51.3415 17.3858H55.483L51.9122 1.20791ZM46.4906 11.6613C46.8564 10.7255 48.2544 7.12155 48.2544 7.12155C48.2278 7.16469 48.6178 6.18075 48.8409 5.57096L49.1404 6.97142C49.1404 6.97142 49.9883 10.8483 50.165 11.6613H46.4906ZM16.3423 1.20791L12.0183 12.2579L11.5578 10.012C10.7531 7.42357 8.24509 4.6194 5.44092 3.21565L9.39498 17.3858L14.0675 17.3809L21.0207 1.20791H16.3208" fill="white"/>
<path id="Vector 1" d="M7.78858 1.20767H0.68108L0.62384 1.54532C6.17743 2.89016 9.85187 6.13903 11.3776 10.0416L9.82532 2.57491C9.55735 1.54699 8.78084 1.24002 7.81929 1.20435" fill="white"/>
</g>
</g>
</svg>
