<svg width="162" height="36" viewBox="0 0 162 36" fill="none" xmlns="http://www.w3.org/2000/svg">
<g id="zoom-logo-svg-150px" clip-path="url(#clip0_73_2949)">
<path id="path833" fill-rule="evenodd" clip-rule="evenodd" d="M131.331 10.7955C131.944 11.852 132.144 13.054 132.21 14.4053L132.297 16.2064V28.8011L132.386 30.6042C132.564 33.5487 134.735 35.726 137.702 35.9112L139.496 36V16.2064L139.585 14.4053C139.659 13.0691 139.857 11.8444 140.479 10.7803C141.112 9.68896 142.022 8.78347 143.116 8.15478C144.21 7.5261 145.451 7.19635 146.713 7.19865C147.975 7.20095 149.214 7.53521 150.306 8.16788C151.398 8.80054 152.304 9.70934 152.934 10.803C153.546 11.8595 153.737 13.0842 153.811 14.4053L153.899 16.2008V28.8011L153.988 30.6042C154.173 33.5638 156.328 35.7411 159.305 35.9112L161.098 36V14.4053C161.098 10.5868 159.582 6.92454 156.882 4.22389C154.183 1.52325 150.521 0.00528842 146.702 0.00378499C144.659 0.00162961 142.638 0.43565 140.775 1.27685C138.913 2.11805 137.251 3.34706 135.901 4.88178C134.551 3.34767 132.889 2.11895 131.027 1.2775C129.164 0.436053 127.144 0.0011916 125.1 0.00189466C122.11 0.00189466 119.336 0.909077 117.038 2.47585C115.635 0.910966 112.498 0.00189466 110.697 0.00189466V36L112.498 35.9112C115.511 35.7127 117.688 33.5941 117.805 30.6042L117.901 28.8011V16.2064L117.99 14.4053C118.066 13.0464 118.255 11.852 118.869 10.7879C119.503 9.6972 120.412 8.79192 121.506 8.16247C122.599 7.53301 123.839 7.20141 125.1 7.20076C126.363 7.20103 127.603 7.5333 128.697 8.16423C129.791 8.79516 130.699 9.70258 131.331 10.7955ZM8.10023 35.9131L9.90137 36H36.8995L36.8106 34.2045C36.5668 31.2449 34.4709 29.0827 31.5017 28.89L29.7006 28.8011H13.5036L35.0983 7.19887L35.0095 5.4053C34.8696 2.41538 32.6849 0.25515 29.7006 0.0907223L27.8995 0.00945436L0.901367 0.00189466L0.990195 1.80303C1.22644 4.73436 3.35265 6.94184 6.29721 7.11193L8.10023 7.20076H24.2972L2.7025 28.803L2.79133 30.6042C2.96899 33.5714 5.11031 35.7203 8.10023 35.9112V35.9131ZM103.63 5.27111C105.302 6.94244 106.628 8.92671 107.533 11.1106C108.437 13.2945 108.903 15.6352 108.903 17.9991C108.903 20.3629 108.437 22.7036 107.533 24.8875C106.628 27.0714 105.302 29.0557 103.63 30.727C100.253 34.1016 95.6738 35.9972 90.8995 35.9972C86.1251 35.9972 81.546 34.1016 78.1687 30.727C71.1399 23.6982 71.1399 12.2999 78.1687 5.27111C79.8388 3.60034 81.8217 2.2749 84.0041 1.37048C86.1865 0.466063 88.5257 0.000373098 90.8881 4.33897e-06C93.2543 -0.00163847 95.5977 0.463231 97.7841 1.36802C99.9705 2.27281 101.957 3.59977 103.63 5.273V5.27111ZM98.5368 10.3683C100.561 12.3944 101.699 15.1414 101.699 18.0057C101.699 20.8699 100.561 23.6169 98.5368 25.643C96.5107 27.6676 93.7637 28.8048 90.8995 28.8048C88.0352 28.8048 85.2882 27.6676 83.2621 25.643C81.2376 23.6169 80.1003 20.8699 80.1003 18.0057C80.1003 15.1414 81.2376 12.3944 83.2621 10.3683C85.2882 8.34379 88.0352 7.20654 90.8995 7.20654C93.7637 7.20654 96.5107 8.34379 98.5368 10.3683ZM53.1116 4.33897e-06C55.4741 0.000621306 57.8133 0.466609 59.9958 1.37136C62.1782 2.2761 64.161 3.60189 65.831 5.273C72.8617 12.2999 72.8617 23.7001 65.831 30.727C62.4536 34.1016 57.8746 35.9972 53.1002 35.9972C48.3258 35.9972 43.7468 34.1016 40.3694 30.727C33.3407 23.6982 33.3407 12.2999 40.3694 5.27111C42.0396 3.60034 44.0225 2.2749 46.2049 1.37048C48.3873 0.466063 50.7265 0.000373098 53.0889 4.33897e-06H53.1116ZM60.7376 10.3646C62.7627 12.3907 63.9003 15.1382 63.9003 18.0028C63.9003 20.8675 62.7627 23.615 60.7376 25.6411C58.7115 27.6657 55.9644 28.8029 53.1002 28.8029C50.236 28.8029 47.489 27.6657 45.4629 25.6411C43.4383 23.615 42.3011 20.868 42.3011 18.0038C42.3011 15.1396 43.4383 12.3925 45.4629 10.3664C47.489 8.3419 50.236 7.20465 53.1002 7.20465C55.9644 7.20465 58.7115 8.3419 60.7376 10.3664V10.3646Z" fill="#9E9E9E"/>
</g>
<defs>
<clipPath id="clip0_73_2949">
<rect width="160.197" height="36" fill="white" transform="translate(0.901367)"/>
</clipPath>
</defs>
</svg>
